<svg width="59" height="60" viewBox="0 0 59 60" fill="none" xmlns="http://www.w3.org/2000/svg">
<path d="M50.4938 21.5197C51.9626 25.0347 54.2808 28.3256 57.0753 30.3008C54.2808 32.276 51.9626 35.5668 50.4938 39.0818C49.0418 42.5567 48.3393 46.4447 48.9443 49.7452C45.6426 49.1401 41.7502 49.8425 38.2731 51.2945C34.758 52.7623 31.4672 55.0791 29.4979 57.8732C27.5225 55.08 24.2327 52.7629 20.7189 51.2946C17.2441 49.8425 13.3561 49.1401 10.0556 49.7451C10.6607 46.4433 9.95831 42.551 8.5063 39.0738C7.03848 35.5588 4.72167 32.268 1.92762 30.2987C4.72079 28.3233 7.03791 25.0335 8.5062 21.5197C9.95825 18.0448 10.6607 14.1569 10.0557 10.8564C13.3574 11.4615 17.2498 10.7591 20.7269 9.30708C24.242 7.83926 27.5328 5.52245 29.5021 2.72841C31.4775 5.52157 34.7673 7.83869 38.2811 9.30698C41.7559 10.759 45.6438 11.4615 48.9443 10.8565C48.3393 14.1569 49.0418 18.0449 50.4938 21.5197Z" fill="white" stroke="#EAEDF9" stroke-width="2"/>
<path d="M39.1052 24.9222L39.1058 24.9242C39.3038 25.6476 39.4057 26.8037 39.4552 27.8163C39.4796 28.3148 39.4908 28.7656 39.4959 29.0918C39.4984 29.2548 39.4994 29.3864 39.4998 29.4769C39.5 29.5222 39.5 29.5572 39.5 29.5807L39.5 29.6072L39.4999 29.6137L39.4999 29.6152L39.4999 29.6155L39.4999 29.6155V29.618V29.6181V29.6184L39.4999 29.6199L39.4999 29.6264L39.4998 29.6528L39.4991 29.7561C39.4983 29.8463 39.4968 29.9774 39.4936 30.1397C39.4872 30.4645 39.4745 30.9136 39.4491 31.4104C39.3976 32.418 39.2959 33.572 39.1049 34.2986C38.9204 34.982 38.3802 35.5221 37.6966 35.7066C37.356 35.796 36.7161 35.871 35.9065 35.9291C35.1096 35.9863 34.1882 36.0247 33.3111 36.0503C32.4348 36.0759 31.6067 36.0887 30.9973 36.0952C30.6927 36.0984 30.4431 36.1 30.2697 36.1008L30.0696 36.1015L30.0174 36.1016L30.0042 36.1016L30.001 36.1016H30.0002H30L30 36.6016L29.9999 36.1016H29.9997H29.999L29.9957 36.1016L29.9825 36.1016L29.9306 36.1015C29.8849 36.1014 29.8174 36.1011 29.731 36.1007C29.5581 36.0999 29.309 36.0982 29.0051 36.0949C28.3972 36.0882 27.5707 36.0749 26.6956 36.0483C25.8197 36.0216 24.8991 35.9817 24.1017 35.9223C23.2905 35.8618 22.6486 35.7837 22.3053 35.6907L22.3046 35.6905C21.6202 35.5063 21.0793 34.9657 20.8949 34.2817C20.7041 33.5642 20.6024 32.4107 20.5508 31.4002C20.5254 30.9023 20.5127 30.4517 20.5063 30.1256C20.5032 29.9626 20.5016 29.831 20.5008 29.7404L20.5001 29.6365L20.5 29.61L20.5 29.6034L20.5 29.6019L20.5 29.6016V29.6015L20.5 29.6012L20.5 29.5997L20.5 29.5932L20.5001 29.5668L20.5008 29.4635C20.5016 29.3733 20.5032 29.2422 20.5063 29.0799C20.5127 28.7551 20.5254 28.306 20.5508 27.8092C20.6024 26.8015 20.704 25.6475 20.895 24.9208C21.0798 24.2365 21.6374 23.6803 22.3044 23.4962C22.6452 23.407 23.2847 23.332 24.0934 23.274C24.8903 23.2168 25.8117 23.1785 26.6888 23.1528C27.5651 23.1272 28.3933 23.1144 29.0026 23.108C29.3072 23.1048 29.5568 23.1032 29.7302 23.1024L29.9304 23.1017L29.9825 23.1016L29.9957 23.1016L29.9989 23.1016L29.9997 23.1016H29.9999L30 22.6016L30 23.1016H30.0002L30.001 23.1016L30.0042 23.1016L30.0174 23.1016L30.0695 23.1017C30.1154 23.1018 30.1829 23.102 30.2696 23.1024C30.443 23.1032 30.6926 23.1049 30.9971 23.1082C31.6064 23.1149 32.4344 23.1282 33.3105 23.1549C34.1875 23.1815 35.1086 23.2214 35.9051 23.2808C36.7159 23.3413 37.3549 23.4195 37.6933 23.5121L37.6953 23.5126C38.38 23.6969 38.921 24.2378 39.1052 24.9222Z" fill="white" stroke="#FF0A78"/>
<path d="M28 32.6016L34 29.1016L28 25.6016V32.6016Z" fill="#FF0A78"/>
</svg>
