<svg width="59" height="60" viewBox="0 0 59 60" fill="none" xmlns="http://www.w3.org/2000/svg">
<path d="M50.4938 21.5197C51.9626 25.0347 54.2808 28.3256 57.0753 30.3008C54.2808 32.276 51.9626 35.5668 50.4938 39.0818C49.0418 42.5567 48.3393 46.4447 48.9443 49.7452C45.6426 49.1401 41.7502 49.8425 38.2731 51.2945C34.758 52.7623 31.4672 55.0791 29.4979 57.8732C27.5225 55.08 24.2327 52.7629 20.7189 51.2946C17.2441 49.8425 13.3561 49.1401 10.0556 49.7451C10.6607 46.4433 9.95831 42.551 8.5063 39.0738C7.03848 35.5588 4.72167 32.268 1.92762 30.2987C4.72079 28.3233 7.03791 25.0335 8.5062 21.5197C9.95825 18.0448 10.6607 14.1569 10.0557 10.8564C13.3574 11.4615 17.2498 10.7591 20.7269 9.30708C24.242 7.83926 27.5328 5.52245 29.5021 2.72841C31.4775 5.52157 34.7673 7.83869 38.2811 9.30698C41.7559 10.759 45.6438 11.4615 48.9443 10.8565C48.3393 14.1569 49.0418 18.0449 50.4938 21.5197Z" fill="white" stroke="#EAEDF9" stroke-width="2"/>
<path d="M29.9964 23.223C32.4 23.223 32.6821 23.2337 33.6321 23.2766C34.5107 23.3159 34.9857 23.4623 35.3036 23.5873C35.725 23.7516 36.025 23.9444 36.3393 24.2587C36.6536 24.573 36.85 24.873 37.0107 25.2944C37.1321 25.6123 37.2821 26.0873 37.3214 26.9659C37.3643 27.9159 37.375 28.198 37.375 30.6016C37.375 33.0052 37.3643 33.2873 37.3214 34.2373C37.2821 35.1159 37.1357 35.5909 37.0107 35.9088C36.8464 36.3302 36.6536 36.6302 36.3393 36.9445C36.025 37.2588 35.725 37.4552 35.3036 37.6159C34.9857 37.7374 34.5107 37.8874 33.6321 37.9266C32.6821 37.9695 32.4 37.9802 29.9964 37.9802C27.5929 37.9802 27.3107 37.9695 26.3607 37.9266C25.4821 37.8874 25.0071 37.7409 24.6893 37.6159C24.2679 37.4516 23.9679 37.2588 23.6536 36.9445C23.3393 36.6302 23.1429 36.3302 22.9821 35.9088C22.8607 35.5909 22.7107 35.1159 22.6714 34.2373C22.6286 33.2873 22.6179 33.0052 22.6179 30.6016C22.6179 28.198 22.6286 27.9159 22.6714 26.9659C22.7107 26.0873 22.8571 25.6123 22.9821 25.2944C23.1464 24.873 23.3393 24.573 23.6536 24.2587C23.9679 23.9444 24.2679 23.748 24.6893 23.5873C25.0071 23.4659 25.4821 23.3159 26.3607 23.2766C27.3107 23.2301 27.5964 23.223 29.9964 23.223ZM29.9964 21.6016C27.5536 21.6016 27.2464 21.6123 26.2857 21.6551C25.3286 21.698 24.675 21.8516 24.1036 22.073C23.5107 22.3016 23.0107 22.6123 22.5107 23.1123C22.0107 23.6123 21.7036 24.1159 21.4714 24.7052C21.25 25.2766 21.0964 25.9302 21.0536 26.8909C21.0107 27.848 21 28.1552 21 30.598C21 33.0409 21.0107 33.3481 21.0536 34.3088C21.0964 35.2659 21.25 35.9195 21.4714 36.4945C21.7 37.0874 22.0107 37.5874 22.5107 38.0874C23.0107 38.5874 23.5143 38.8945 24.1036 39.1267C24.675 39.3481 25.3286 39.5017 26.2893 39.5445C27.25 39.5874 27.5536 39.5981 30 39.5981C32.4464 39.5981 32.75 39.5874 33.7107 39.5445C34.6679 39.5017 35.3214 39.3481 35.8964 39.1267C36.4893 38.8981 36.9893 38.5874 37.4893 38.0874C37.9893 37.5874 38.2964 37.0838 38.5286 36.4945C38.75 35.9231 38.9036 35.2695 38.9464 34.3088C38.9893 33.3481 39 33.0445 39 30.598C39 28.1516 38.9893 27.848 38.9464 26.8873C38.9036 25.9302 38.75 25.2766 38.5286 24.7016C38.3 24.1087 37.9893 23.6087 37.4893 23.1087C36.9893 22.6087 36.4857 22.3016 35.8964 22.0694C35.325 21.848 34.6714 21.6944 33.7107 21.6516C32.7464 21.6123 32.4393 21.6016 29.9964 21.6016Z" fill="#FF0A78"/>
<path d="M29.9964 25.9795C27.4464 25.9795 25.375 28.0473 25.375 30.6009C25.375 33.1544 27.4428 35.2223 29.9964 35.2223C32.55 35.2223 34.6178 33.1544 34.6178 30.6009C34.6178 28.0473 32.55 25.9795 29.9964 25.9795ZM29.9964 33.5973C28.3393 33.5973 26.9964 32.2544 26.9964 30.5973C26.9964 28.9402 28.3393 27.5973 29.9964 27.5973C31.6535 27.5973 32.9964 28.9402 32.9964 30.5973C32.9964 32.2544 31.6535 33.5973 29.9964 33.5973Z" fill="#FF0A78"/>
<path d="M34.8012 26.873C35.3968 26.873 35.8797 26.3901 35.8797 25.7944C35.8797 25.1987 35.3968 24.7158 34.8012 24.7158C34.2055 24.7158 33.7227 25.1987 33.7227 25.7944C33.7227 26.3901 34.2055 26.873 34.8012 26.873Z" fill="#FF0A78"/>
</svg>
