<svg width="59" height="60" viewBox="0 0 59 60" fill="none" xmlns="http://www.w3.org/2000/svg">
<path d="M50.4938 21.5197C51.9626 25.0347 54.2808 28.3256 57.0753 30.3008C54.2808 32.276 51.9626 35.5668 50.4938 39.0818C49.0418 42.5567 48.3393 46.4447 48.9443 49.7452C45.6426 49.1401 41.7502 49.8425 38.2731 51.2945C34.758 52.7623 31.4672 55.0791 29.4979 57.8732C27.5225 55.08 24.2327 52.7629 20.7189 51.2946C17.2441 49.8425 13.3561 49.1401 10.0556 49.7451C10.6607 46.4433 9.95831 42.551 8.5063 39.0738C7.03848 35.5588 4.72167 32.268 1.92762 30.2987C4.72079 28.3233 7.03791 25.0335 8.5062 21.5197C9.95825 18.0448 10.6607 14.1569 10.0557 10.8564C13.3574 11.4615 17.2498 10.7591 20.7269 9.30708C24.242 7.83926 27.5328 5.52245 29.5021 2.72841C31.4775 5.52157 34.7673 7.83869 38.2811 9.30698C41.7559 10.759 45.6438 11.4615 48.9443 10.8565C48.3393 14.1569 49.0418 18.0449 50.4938 21.5197Z" fill="white" stroke="#EAEDF9" stroke-width="2"/>
<path d="M33.1133 21.2135C33.2578 21.2303 33.3883 21.2472 33.5 21.2625V23.2375H32.5251C31.6887 23.2375 31.0591 23.5045 30.6485 23.9847C30.2503 24.4503 30.121 25.0438 30.121 25.5821V27.7957V28.2957H30.621H33.2813L32.9149 30.7084H30.621H30.121V31.2084V39.0233C29.686 39.0751 29.2436 39.1016 28.7945 39.1016C28.3455 39.1016 27.903 39.0751 27.468 39.0233V31.2084V30.7084H26.968H24.5V28.2957H26.968H27.468V27.7957V25.1948C27.468 23.8139 27.8732 22.804 28.5296 22.1404C29.1858 21.4769 30.1504 21.1016 31.3836 21.1016C31.9959 21.1016 32.6289 21.157 33.1133 21.2135Z" fill="white" stroke="#FF0A78"/>
</svg>
