<svg width="59" height="60" viewBox="0 0 59 60" fill="none" xmlns="http://www.w3.org/2000/svg">
<path d="M50.4938 21.5197C51.9626 25.0347 54.2808 28.3256 57.0753 30.3008C54.2808 32.276 51.9626 35.5668 50.4938 39.0818C49.0418 42.5567 48.3393 46.4447 48.9443 49.7452C45.6426 49.1401 41.7502 49.8425 38.2731 51.2945C34.758 52.7623 31.4672 55.0791 29.4979 57.8732C27.5225 55.08 24.2327 52.7629 20.7189 51.2946C17.2441 49.8425 13.3561 49.1401 10.0556 49.7451C10.6607 46.4433 9.95831 42.551 8.5063 39.0738C7.03848 35.5588 4.72167 32.268 1.92762 30.2987C4.72079 28.3233 7.03791 25.0335 8.5062 21.5197C9.95825 18.0448 10.6607 14.1569 10.0557 10.8564C13.3574 11.4615 17.2498 10.7591 20.7269 9.30708C24.242 7.83926 27.5328 5.52245 29.5021 2.72841C31.4775 5.52157 34.7673 7.83869 38.2811 9.30698C41.7559 10.759 45.6438 11.4615 48.9443 10.8565C48.3393 14.1569 49.0418 18.0449 50.4938 21.5197Z" fill="white" stroke="#EAEDF9" stroke-width="2"/>
<mask id="path-2-inside-1_238_17935" fill="white">
<path d="M25.3478 32.6045L25.017 37.3509C25.4903 37.3509 25.6953 37.1435 25.9412 36.8945L28.1604 34.7312L32.7588 38.166C33.6022 38.6454 34.1964 38.393 34.4239 37.3747L37.4423 22.9486L37.4431 22.9477C37.7106 21.6761 36.9923 21.1789 36.1706 21.4908L18.4285 28.4191C17.2176 28.8985 17.236 29.587 18.2227 29.899L22.7586 31.338L33.2947 24.6137C33.7905 24.2788 34.2414 24.4641 33.8705 24.799L25.3478 32.6045Z"/>
</mask>
<path d="M25.3478 32.6045L25.017 37.3509C25.4903 37.3509 25.6953 37.1435 25.9412 36.8945L28.1604 34.7312L32.7588 38.166C33.6022 38.6454 34.1964 38.393 34.4239 37.3747L37.4423 22.9486L37.4431 22.9477C37.7106 21.6761 36.9923 21.1789 36.1706 21.4908L18.4285 28.4191C17.2176 28.8985 17.236 29.587 18.2227 29.899L22.7586 31.338L33.2947 24.6137C33.7905 24.2788 34.2414 24.4641 33.8705 24.799L25.3478 32.6045Z" fill="#FF0A78"/>
<path d="M25.3478 32.6045L10.9394 16.8722L4.65838 22.6246L4.06614 31.1211L25.3478 32.6045ZM25.017 37.3509L3.7353 35.8675L2.14488 58.6842H25.017V37.3509ZM25.9412 36.8945L11.0501 21.6181L10.903 21.7615L10.7587 21.9077L25.9412 36.8945ZM28.1604 34.7312L40.9271 17.6396L26.3227 6.73077L13.2694 19.4548L28.1604 34.7312ZM32.7588 38.166L19.9922 55.2577L21.0589 56.0544L22.2163 56.7124L32.7588 38.166ZM34.4239 37.3747L55.2439 42.0263L55.2754 41.8852L55.305 41.7437L34.4239 37.3747ZM37.4423 22.9486L22.2036 8.01895L17.8385 12.4744L16.5611 18.5796L37.4423 22.9486ZM37.4431 22.9477L52.6818 37.8774L57.0381 33.4309L58.3195 27.3395L37.4431 22.9477ZM36.1706 21.4908L28.5988 1.54643L28.5045 1.58223L28.4106 1.61891L36.1706 21.4908ZM18.4285 28.4191L10.6685 8.54723L10.6219 8.56542L10.5754 8.58382L18.4285 28.4191ZM18.2227 29.899L24.6739 9.56446L24.6637 9.56124L24.6536 9.55804L18.2227 29.899ZM22.7586 31.338L16.3074 51.6726L25.8217 54.691L34.2357 49.321L22.7586 31.338ZM33.2947 24.6137L44.7718 42.5967L45.0054 42.4476L45.2351 42.2925L33.2947 24.6137ZM33.8705 24.799L19.5724 8.9663L19.5171 9.01629L19.4621 9.06666L33.8705 24.799ZM4.06614 31.1211L3.7353 35.8675L46.2987 38.8343L46.6295 34.0879L4.06614 31.1211ZM25.017 58.6842C28.7238 58.6842 32.6831 57.7779 36.3762 55.6068C37.9958 54.6546 39.1933 53.6738 39.9441 53.0055C40.3163 52.6741 40.6111 52.39 40.7948 52.2096C40.9651 52.0425 41.1136 51.8914 41.1236 51.8813L10.7587 21.9077C10.2841 22.3885 12.0792 20.3971 14.7527 18.8254C18.1634 16.8203 21.7836 16.0176 25.017 16.0176V58.6842ZM40.8322 52.1708L43.0514 50.0076L13.2694 19.4548L11.0501 21.6181L40.8322 52.1708ZM15.3937 51.8228L19.9922 55.2577L45.5255 21.0744L40.9271 17.6396L15.3937 51.8228ZM22.2163 56.7124C25.1347 58.3713 33.3205 62.064 42.7698 57.6983C51.9976 53.4349 54.564 45.0697 55.2439 42.0263L13.6038 32.7231C14.0563 30.698 16.2118 22.9682 24.8748 18.9657C33.7593 14.8609 41.2264 18.4402 43.3014 19.6197L22.2163 56.7124ZM55.305 41.7437L58.3235 27.3176L16.5611 18.5796L13.5427 33.0057L55.305 41.7437ZM52.681 37.8782L52.6818 37.8774L22.2044 8.0181L22.2036 8.01895L52.681 37.8782ZM58.3195 27.3395C59.2004 23.1524 59.7588 13.8601 52.1591 6.40067C44.1476 -1.46296 34.0857 -0.536631 28.5988 1.54643L43.7424 41.4352C39.0772 43.2064 29.7853 44.2253 22.2715 36.8502C15.1695 29.8793 15.9534 21.4714 16.5667 18.5559L58.3195 27.3395ZM28.4106 1.61891L10.6685 8.54723L26.1885 48.2911L43.9306 41.3628L28.4106 1.61891ZM10.5754 8.58382C8.83487 9.27293 6.16345 10.5499 3.5325 12.9007C0.998613 15.1648 -3.10958 19.949 -3.75251 27.3839C-4.45224 35.4757 -0.648081 41.6156 2.94628 45.0429C6.22634 48.1706 9.71451 49.5832 11.7917 50.2399L24.6536 9.55804C26.2375 10.0588 29.3533 11.2684 32.3903 14.1642C35.7416 17.3598 39.4318 23.2391 38.7555 31.0598C38.136 38.2237 34.1886 42.7264 31.961 44.7168C29.6363 46.794 27.4167 47.8051 26.2816 48.2545L10.5754 8.58382ZM11.7715 50.2335L16.3074 51.6726L29.2098 11.0035L24.6739 9.56446L11.7715 50.2335ZM34.2357 49.321L44.7718 42.5967L21.8176 6.63072L11.2815 13.355L34.2357 49.321ZM45.2351 42.2925C43.4102 43.525 41.1354 44.6204 38.4398 45.242C36.1483 45.7705 31.7585 46.3601 26.6645 44.5213C23.9741 43.5502 20.3321 41.5998 17.3109 37.8159C14.0716 33.759 12.5088 28.7629 12.6873 23.8131C12.9997 15.1472 18.2459 10.1642 19.5724 8.9663L48.1687 40.6317C49.6806 39.2664 55.0095 34.1347 55.3262 25.3503C55.7578 13.3796 47.1585 6.55768 41.1508 4.3891C35.9284 2.50401 31.3561 3.08912 28.8522 3.66654C25.9442 4.33714 23.4271 5.53496 21.3543 6.93497L45.2351 42.2925ZM19.4621 9.06666L10.9394 16.8722L39.7563 48.3369L48.279 40.5314L19.4621 9.06666Z" fill="#FF0A78" mask="url(#path-2-inside-1_238_17935)"/>
</svg>
