<svg width="22" height="23" viewBox="0 0 22 23" fill="none" xmlns="http://www.w3.org/2000/svg">
<path d="M7.12396 2.43642L8.11121 2.12109C9.03521 1.82592 10.0234 2.30351 10.4194 3.23667L11.2077 5.09567C11.5515 5.90509 11.3608 6.85751 10.7365 7.44967L9.00129 9.09784C9.10854 10.0842 9.43946 11.0549 9.99496 12.0101C10.5228 12.9343 11.2307 13.7431 12.0767 14.3888L14.163 13.6922C14.9532 13.4291 15.814 13.7325 16.2989 14.4448L17.4282 16.1039C17.9929 16.9326 17.8911 18.0748 17.1917 18.7769L16.4419 19.5295C15.6957 20.2784 14.6305 20.5507 13.6442 20.2427C11.3168 19.5167 9.17729 17.3616 7.22479 13.7774C5.26954 10.1878 4.58021 7.14076 5.15496 4.64009C5.39696 3.58776 6.14679 2.74901 7.12579 2.43642" fill="#7417FF"/>
</svg>
