<svg width="34" height="27" viewBox="0 0 34 27" fill="none" xmlns="http://www.w3.org/2000/svg">
<g clip-path="url(#clip0_4045_1123)">
<path d="M0.359283 5.62496C0.358531 4.5474 0.785868 3.51367 1.54729 2.75119C2.3087 1.98871 3.34183 1.55993 4.41939 1.55917L28.7971 1.54215C29.8746 1.54139 30.9083 1.96873 31.6708 2.73015C32.4333 3.49157 32.8621 4.52469 32.8628 5.60225L32.8742 21.854C32.875 22.9316 32.4476 23.9653 31.6862 24.7278C30.9248 25.4903 29.8917 25.9191 28.8141 25.9198L4.43642 25.9368C3.35886 25.9376 2.32513 25.5103 1.56265 24.7488C0.800169 23.9874 0.371388 22.9543 0.370635 21.8767L0.359283 5.62496ZM4.42081 3.59065C3.88203 3.59102 3.36547 3.80541 2.98476 4.18665C2.60405 4.5679 2.39038 5.08476 2.39076 5.62354L2.39106 6.06437L16.6173 14.5866L30.8317 6.0445L30.8314 5.60367C30.831 5.06489 30.6166 4.54833 30.2354 4.16762C29.8541 3.78691 29.3373 3.57324 28.7985 3.57362L4.42081 3.59065ZM30.8333 8.4132L21.2732 14.1588L30.8415 20.0373L30.8333 8.4132ZM30.774 22.3817L19.3116 15.3384L16.619 16.9553L13.9241 15.3422L2.47154 22.3994C2.58729 22.8316 2.84248 23.2135 3.19752 23.4858C3.55255 23.7581 3.98756 23.9056 4.435 23.9054L28.8127 23.8883C29.2598 23.8881 29.6944 23.7403 30.0491 23.4679C30.4037 23.1955 30.6585 22.8136 30.774 22.3817ZM2.40084 20.0572L11.9609 14.1653L2.39272 8.43306L2.40084 20.0572Z" fill="#EBECF3"/>
</g>
<defs>
<clipPath id="clip0_4045_1123">
<rect width="33.0182" height="26.023" fill="white" transform="translate(0 0.55957) rotate(-0.040021)"/>
</clipPath>
</defs>
</svg>
