<svg width="55" height="37" viewBox="0 0 55 37" fill="none" xmlns="http://www.w3.org/2000/svg">
<g clip-path="url(#clip0_4045_1442)">
<path d="M34.3967 6.74463H20.0381V30.1964H34.3967V6.74463Z" fill="#FF5F00"/>
<path d="M21.5168 18.4727C21.515 16.2145 22.0269 13.9854 23.0138 11.9543C24.0006 9.92315 25.4366 8.1431 27.213 6.74885C25.0128 5.01978 22.3706 3.94457 19.5883 3.64611C16.806 3.34766 13.9959 3.83799 11.4791 5.06108C8.96227 6.28417 6.84034 8.19066 5.35579 10.5627C3.87125 12.9347 3.08398 15.6765 3.08398 18.4747C3.08398 21.273 3.87125 24.0148 5.35579 26.3868C6.84034 28.7588 8.96227 30.6653 11.4791 31.8884C13.9959 33.1115 16.806 33.6018 19.5883 33.3034C22.3706 33.0049 25.0128 31.9297 27.213 30.2006C25.436 28.8059 23.9997 27.0252 23.0129 24.9933C22.026 22.9614 21.5144 20.7316 21.5168 18.4727Z" fill="#EB001B"/>
<path d="M49.9196 27.7152V27.2347H50.1268V27.1353H49.6338V27.2347H49.8285V27.7152H49.9196ZM50.8766 27.7152V27.1353H50.7275L50.5535 27.5495L50.3795 27.1353H50.2303V27.7152H50.338V27.2761L50.4996 27.6531H50.6115L50.773 27.2761V27.7152H50.8766Z" fill="#F79E1B"/>
<path d="M51.3441 18.4727C51.344 21.2711 50.5566 24.0131 49.0718 26.3852C47.5869 28.7573 45.4647 30.6638 42.9476 31.8867C40.4304 33.1096 37.62 33.5996 34.8376 33.3007C32.0551 33.0018 29.4129 31.9261 27.2129 30.1965C28.9886 28.801 30.4241 27.0205 31.4112 24.9892C32.3984 22.9579 32.9113 20.729 32.9113 18.4706C32.9113 16.2122 32.3984 13.9833 31.4112 11.952C30.4241 9.92075 28.9886 8.1402 27.2129 6.74471C29.4129 5.0151 32.0551 3.93937 34.8376 3.64049C37.62 3.3416 40.4304 3.83162 42.9476 5.05453C45.4647 6.27745 47.5869 8.1839 49.0718 10.556C50.5566 12.9281 51.344 15.6701 51.3441 18.4685V18.4727Z" fill="#F79E1B"/>
</g>
<defs>
<clipPath id="clip0_4045_1442">
<rect width="54.4308" height="36" fill="white" transform="translate(0 0.472656)"/>
</clipPath>
</defs>
</svg>
