<svg width="57" height="19" viewBox="0 0 57 19" fill="none" xmlns="http://www.w3.org/2000/svg">
<g clip-path="url(#clip0_4045_1449)">
<path d="M24.5318 18.2131H20.0264L22.8444 0.788574H27.3496L24.5318 18.2131Z" fill="#00579F"/>
<path d="M40.8647 1.21449C39.976 0.861926 38.5665 0.472656 36.8237 0.472656C32.3744 0.472656 29.2413 2.84523 29.222 6.23729C29.1851 8.73995 31.4653 10.13 33.1707 10.9644C34.9138 11.8171 35.5063 12.3737 35.5063 13.1338C35.4886 14.3011 34.0978 14.8392 32.8006 14.8392C31.0018 14.8392 30.038 14.5617 28.5733 13.9123L27.9801 13.6339L27.3496 17.5453C28.4063 18.0267 30.3531 18.4539 32.3744 18.4727C37.1018 18.4727 40.1795 16.1368 40.216 12.522C40.234 10.5385 39.0299 9.01859 36.4341 7.77663C34.8583 6.97937 33.8933 6.44178 33.8933 5.62604C33.9118 4.88446 34.7095 4.12489 36.4883 4.12489C37.953 4.08769 39.0292 4.43975 39.8444 4.79207L40.2519 4.97709L40.8647 1.21449Z" fill="#00579F"/>
<path d="M46.8524 12.0402C47.2235 11.0392 48.6512 7.16495 48.6512 7.16495C48.6325 7.20216 49.0215 6.14546 49.244 5.49676L49.5588 6.99816C49.5588 6.99816 50.412 11.169 50.5973 12.0402C49.8932 12.0402 47.7423 12.0402 46.8524 12.0402ZM52.4138 0.788574H48.9289C47.8542 0.788574 47.0377 1.10344 46.574 2.23429L39.8818 18.2128H44.6092C44.6092 18.2128 45.3875 16.0622 45.5548 15.599C46.0734 15.599 50.6722 15.599 51.3394 15.599C51.4687 16.2108 51.8769 18.2128 51.8769 18.2128H56.0485L52.4138 0.788574Z" fill="#00579F"/>
<path d="M16.2631 0.788574L11.8508 12.6704L11.3687 10.2606C10.553 7.48006 7.99462 4.45904 5.13965 2.9569L9.18115 18.1946H13.9455L21.0272 0.788574H16.2631Z" fill="#00579F"/>
<path d="M7.75361 0.788574H0.504822L0.430664 1.14064C6.08517 2.5866 9.83004 6.07204 11.3686 10.2614L9.79284 2.25326C9.53341 1.14039 8.73614 0.825284 7.75361 0.788574Z" fill="#FAA61A"/>
</g>
<defs>
<clipPath id="clip0_4045_1449">
<rect width="55.6177" height="18" fill="white" transform="translate(0.430664 0.472656)"/>
</clipPath>
</defs>
</svg>
