<svg width="65" height="15" viewBox="0 0 65 15" fill="none" xmlns="http://www.w3.org/2000/svg">
<g clip-path="url(#clip0_4045_1456)">
<path d="M36.6143 2.01763C36.5079 1.71408 36.3685 1.45653 36.0684 1.44503H36.0495H35.799H35.317C35.2957 1.44273 35.2721 1.44043 35.2485 1.44043H35.0074C34.9838 1.44043 34.9602 1.44273 34.9389 1.44503C34.6884 1.48182 34.5632 1.72558 34.4687 2.01073L30.7588 12.0991C30.7588 12.2325 30.8698 12.3405 31.0069 12.3405H31.782C32.0892 12.3405 32.2475 12.0945 32.3396 11.7978L33.0792 9.696C33.1312 9.55113 33.2706 9.45455 33.429 9.45455H37.5547C37.7107 9.45455 37.8501 9.55113 37.9021 9.6937L38.6724 11.8185C38.767 12.1152 38.9324 12.3612 39.2537 12.3612H40.0642C40.2084 12.3612 40.3242 12.2532 40.3242 12.1198L36.6143 2.01763ZM33.5873 8.26105L35.4588 2.95357L37.3846 8.26105H33.5873Z" fill="#76A62D"/>
<path d="M47.4607 1.47281C47.3614 1.43601 46.7872 1.44061 46.7872 1.44061C46.402 1.44981 46.1563 1.44061 45.9838 1.67287C45.9578 1.70737 45.9389 1.74416 45.92 1.78095L43.6208 6.62162L41.253 1.78325C41.2341 1.74646 41.2152 1.70967 41.1892 1.67517C41.0167 1.44291 40.7709 1.44981 40.3858 1.44291C40.3858 1.44291 39.8116 1.43831 39.7123 1.47511C39.476 1.56249 39.632 1.84534 39.743 2.0776L42.6472 7.71623C42.7795 7.97378 42.848 8.25664 42.848 8.54409V11.9475C42.848 12.1775 43.0394 12.3637 43.2758 12.3637H43.883C44.1193 12.3637 44.3108 12.1775 44.3108 11.9475V8.56018C44.3108 8.27273 44.3793 7.98988 44.5116 7.73233L47.4276 2.0753C47.541 1.84304 47.697 1.56019 47.4607 1.47281Z" fill="#76A62D"/>
<path d="M58.5618 6.73883L51.5909 1.05651C51.5389 1.01512 51.4633 1.01742 51.416 1.06571L50.3857 2.10973L56.0783 6.73883L50.3857 11.3679L51.416 12.412C51.4633 12.4602 51.5389 12.4625 51.5909 12.4212L58.5618 6.73883Z" fill="#76A62D"/>
<path d="M63.5716 6.78473L56.6006 1.10241C56.5487 1.06102 56.473 1.06332 56.4258 1.11161L55.3955 2.15563L61.088 6.78473L55.3955 11.4138L56.4258 12.4579C56.473 12.5061 56.5487 12.5084 56.6006 12.467L63.5716 6.78473Z" fill="#76A62D"/>
<path d="M9.06143 1.43359H8.18239C7.99807 1.43359 7.85156 1.57847 7.85156 1.75554V12.0003C7.85156 12.1866 8.00752 12.3406 8.20129 12.3406H9.04725C9.23865 12.3406 9.39698 12.1889 9.39698 12.0003V1.75784C9.39461 1.57847 9.24574 1.43359 9.06143 1.43359Z" fill="#76A62D"/>
<path d="M5.91599 11.0415H1.99102V1.75798C1.99102 1.57861 1.84216 1.43604 1.6602 1.43604H0.859142C0.674827 1.43604 0.52832 1.58091 0.52832 1.75798V11.0438V11.8923C0.52832 12.1039 0.703183 12.2741 0.92058 12.2741H1.99339H5.91835C6.10739 12.2741 6.25863 12.1269 6.25863 11.9429V11.3726C6.25626 11.191 6.10267 11.0415 5.91599 11.0415Z" fill="#76A62D"/>
<path d="M29.6075 2.03593C29.1184 1.71399 28.4425 1.48633 27.15 1.48633H25.1107H24.6476C24.3498 1.48633 24.1064 1.72089 24.1064 2.01294V11.8C24.1064 12.099 24.3546 12.3428 24.6641 12.3428H25.0942C25.4014 12.3428 25.6518 12.1013 25.6518 11.8V8.12298C26.115 8.12298 27.7171 8.12298 27.9061 8.12298C28.1259 8.12298 30.9473 7.69296 30.9473 4.70347C30.945 3.4019 30.2597 2.46826 29.6075 2.03593ZM27.3934 6.99618C27.2469 6.99618 25.822 6.99618 25.822 6.99618H25.6495V2.61313H26.8924C27.7455 2.61313 28.1921 2.76261 28.5158 2.97647C28.9482 3.26162 29.3996 3.87791 29.3996 4.73797C29.4019 6.71333 27.5399 6.99618 27.3934 6.99618Z" fill="#76A62D"/>
<path d="M22.6773 12.5843C22.6159 12.5406 22.5473 12.5084 22.4741 12.4808C21.8928 12.2646 21.0445 11.692 20.5719 11.3954C20.2056 11.1654 20.2623 10.9838 20.3119 10.9079C20.3214 10.8964 20.3332 10.8826 20.3426 10.8711C20.345 10.8688 20.345 10.8688 20.345 10.8688C21.1484 9.90986 21.6139 8.54389 21.6139 6.81919C21.6139 3.76992 20.2741 1.29785 16.6374 1.29785C13.2914 1.29785 11.6846 3.76992 11.6846 6.81919C11.6846 9.86846 12.7645 12.4785 16.6374 12.4785C17.4243 12.4785 18.1474 12.3313 18.7831 12.0462H18.7854C18.9721 11.968 19.1541 11.9703 19.4045 12.1474C21.2004 13.442 22.0913 13.9181 22.7293 13.9181C23.0365 13.9181 22.9821 12.9982 22.9821 12.9982C22.9821 12.9982 22.9372 12.766 22.6773 12.5843ZM13.2725 6.84219C13.2725 6.83529 13.2725 6.82839 13.2725 6.81919C13.2772 4.74955 14.0523 2.55343 16.6422 2.55343C19.577 2.55343 20.026 4.74955 20.0284 6.81919C20.0284 6.82609 20.0284 6.83299 20.0284 6.84219C20.0284 9.30506 19.2084 11.1769 16.6422 11.1769C13.6955 11.1769 13.2725 8.91873 13.2725 6.84219Z" fill="#76A62D"/>
</g>
<defs>
<clipPath id="clip0_4045_1456">
<rect width="64" height="14" fill="white" transform="translate(0.0488281 0.472656)"/>
</clipPath>
</defs>
</svg>
