<svg width="46" height="46" viewBox="0 0 46 46" fill="none" xmlns="http://www.w3.org/2000/svg">
<path fill-rule="evenodd" clip-rule="evenodd" d="M23 0.5C10.5733 0.5 0.5 10.5733 0.5 23C0.5 35.4268 10.5733 45.5 23 45.5C35.4268 45.5 45.5 35.4268 45.5 23C45.5 10.5733 35.4268 0.5 23 0.5ZM15.125 17.375C15.125 16.3408 15.3287 15.3168 15.7244 14.3614C16.1202 13.4059 16.7003 12.5378 17.4315 11.8065C18.1628 11.0753 19.0309 10.4952 19.9864 10.0994C20.9418 9.70369 21.9658 9.5 23 9.5C24.0342 9.5 25.0582 9.70369 26.0136 10.0994C26.9691 10.4952 27.8372 11.0753 28.5685 11.8065C29.2997 12.5378 29.8798 13.4059 30.2756 14.3614C30.6713 15.3168 30.875 16.3408 30.875 17.375C30.875 19.4636 30.0453 21.4666 28.5685 22.9435C27.0916 24.4203 25.0886 25.25 23 25.25C20.9114 25.25 18.9084 24.4203 17.4315 22.9435C15.9547 21.4666 15.125 19.4636 15.125 17.375ZM37.0805 34.214C35.3962 36.3327 33.2551 38.0434 30.8169 39.2185C28.3787 40.3935 25.7066 41.0025 23 41C20.2934 41.0025 17.6213 40.3935 15.1831 39.2185C12.7449 38.0434 10.6038 36.3327 8.9195 34.214C12.5668 31.5972 17.5438 29.75 23 29.75C28.4562 29.75 33.4333 31.5972 37.0805 34.214Z" fill="#EAEDF9"/>
</svg>
