<svg width="219" height="185" viewBox="0 0 219 185" fill="none" xmlns="http://www.w3.org/2000/svg">
<g opacity="0.5">
<path fill-rule="evenodd" clip-rule="evenodd" d="M124.383 139.564C129.977 144.569 137.067 147.588 144.552 148.152C152.037 148.717 159.499 146.794 165.78 142.684C172.061 138.574 176.81 132.505 179.289 125.42C181.768 118.335 181.84 110.629 179.492 103.5C177.145 96.3698 172.509 90.2142 166.306 85.9882C160.102 81.7621 152.677 79.7019 145.182 80.1272C137.688 80.5526 130.544 83.4397 124.858 88.3406C119.172 93.2415 115.263 99.882 113.737 107.232C113.607 107.858 113.355 108.452 112.995 108.981C112.635 109.51 112.174 109.962 111.64 110.313C111.105 110.664 110.506 110.906 109.878 111.025C109.249 111.144 108.604 111.138 107.977 111.008C107.351 110.878 106.757 110.626 106.228 110.266C105.699 109.906 105.247 109.445 104.896 108.91C104.546 108.376 104.304 107.777 104.184 107.148C104.065 106.52 104.071 105.874 104.201 105.248C106.164 95.7994 111.191 87.2627 118.502 80.9629C125.812 74.663 134.998 70.9522 144.633 70.4064C154.268 69.8605 163.814 72.5101 171.79 77.944C179.765 83.3779 185.724 91.2922 188.742 100.459C191.76 109.625 191.668 119.532 188.48 128.641C185.292 137.75 179.187 145.552 171.112 150.837C163.037 156.121 153.443 158.593 143.82 157.868C134.197 157.143 125.082 153.262 117.889 146.827C117.403 146.404 117.006 145.888 116.72 145.31C116.435 144.731 116.267 144.102 116.227 143.458C116.187 142.814 116.275 142.169 116.486 141.56C116.697 140.951 117.028 140.389 117.458 139.908C117.888 139.428 118.409 139.037 118.991 138.76C119.573 138.482 120.204 138.323 120.848 138.291C121.493 138.259 122.137 138.356 122.743 138.575C123.35 138.795 123.908 139.128 124.383 139.564Z" fill="white"/>
<path fill-rule="evenodd" clip-rule="evenodd" d="M180.655 38.316L167.017 74.809C166.565 76.0188 165.651 76.9995 164.476 77.5352C163.301 78.071 161.961 78.118 160.751 77.6659C159.541 77.2138 158.56 76.2996 158.025 75.1244C157.489 73.9492 157.442 72.6094 157.894 71.3995L171.532 34.9066C171.984 33.6968 172.898 32.7161 174.073 32.1803C175.248 31.6446 176.588 31.5976 177.798 32.0497C179.008 32.5018 179.989 33.416 180.524 34.5912C181.06 35.7664 181.107 37.1062 180.655 38.316Z" fill="white"/>
<path fill-rule="evenodd" clip-rule="evenodd" d="M185.817 66.2382C185.365 67.448 184.45 68.4287 183.275 68.9644C182.1 69.5002 180.76 69.5472 179.55 69.0951L152.181 58.8667C150.971 58.4146 149.99 57.5004 149.454 56.3252C148.919 55.1501 148.872 53.8102 149.324 52.6004C149.776 51.3906 150.69 50.4099 151.865 49.8741C153.041 49.3384 154.38 49.2914 155.59 49.7435L182.96 59.9718C184.17 60.424 185.15 61.3382 185.686 62.5133C186.222 63.6885 186.269 65.0284 185.817 66.2382ZM72.2133 121.191C76.7352 124.508 82.0054 126.657 87.5568 127.449C93.1082 128.242 98.7693 127.652 104.038 125.733C109.307 123.814 114.022 120.625 117.763 116.448C121.505 112.271 124.158 107.236 125.488 101.788C125.637 101.164 125.908 100.576 126.285 100.056C126.662 99.5372 127.138 99.0977 127.686 98.7631C128.233 98.4285 128.841 98.2053 129.475 98.1065C130.109 98.0077 130.756 98.0351 131.38 98.1872C132.003 98.3394 132.59 98.6132 133.107 98.9929C133.625 99.3727 134.062 99.8509 134.393 100.4C134.725 100.949 134.945 101.559 135.041 102.193C135.136 102.828 135.105 103.475 134.95 104.097C132.661 113.473 127.341 121.83 119.817 127.873C112.292 133.917 102.983 137.307 93.3349 137.519C83.6865 137.731 74.2378 134.752 66.4553 129.045C58.6728 123.338 52.9916 115.221 50.2933 105.956C47.595 96.6896 48.0305 86.7922 51.5322 77.7991C55.034 68.806 61.4061 61.2201 69.6598 56.2187C77.9136 51.2172 87.5873 49.0799 97.1799 50.1383C106.773 51.1968 115.748 55.3918 122.712 62.0725C123.174 62.515 123.544 63.0442 123.801 63.6297C124.058 64.2152 124.198 64.8457 124.211 65.4851C124.238 66.7764 123.752 68.0256 122.858 68.958C121.964 69.8904 120.737 70.4296 119.445 70.4569C118.154 70.4842 116.905 69.9975 115.972 69.1037C112.605 65.8747 108.611 63.3713 104.238 61.7482C99.8638 60.1252 95.2035 59.4173 90.545 59.6682C85.8866 59.919 81.3293 61.1234 77.1552 63.2068C72.981 65.2902 69.279 68.2082 66.2781 71.7801C63.2773 75.3521 61.0416 79.502 59.7094 83.9729C58.3773 88.4438 57.977 93.1406 58.5333 97.7724C59.0897 102.404 60.5909 106.873 62.944 110.901C65.2971 114.929 68.4519 118.432 72.2133 121.191Z" fill="white"/>
<path fill-rule="evenodd" clip-rule="evenodd" d="M57.7792 105.691C58.3147 106.866 58.3616 108.206 57.9095 109.415C57.4575 110.625 56.5436 111.605 55.3687 112.141L8.37116 133.568C7.78754 133.846 7.15432 134.006 6.50844 134.037C5.86256 134.068 5.21697 133.97 4.60931 133.749C4.00166 133.528 3.44412 133.188 2.96922 132.749C2.49433 132.31 2.1116 131.781 1.84336 131.193C1.57512 130.605 1.42674 129.969 1.40688 129.322C1.38702 128.676 1.49608 128.032 1.7277 127.428C1.95931 126.825 2.30884 126.273 2.75589 125.806C3.20294 125.339 3.73856 124.965 4.3315 124.707L51.3291 103.281C52.5041 102.745 53.8437 102.698 55.0532 103.15C56.2628 103.602 57.2434 104.516 57.7792 105.691Z" fill="white"/>
<path fill-rule="evenodd" clip-rule="evenodd" d="M16.924 101.899C17.5202 102.13 18.0649 102.477 18.527 102.919C18.9891 103.361 19.3596 103.89 19.6174 104.476C19.8751 105.061 20.015 105.691 20.0291 106.331C20.0432 106.97 19.9311 107.606 19.6994 108.202L12.6968 126.245L30.9099 132.791C32.1256 133.228 33.1181 134.129 33.6692 135.297C34.2202 136.466 34.2846 137.805 33.8482 139.021C33.4119 140.236 32.5104 141.229 31.3422 141.78C30.174 142.331 28.8347 142.395 27.619 141.959L0.00117419 132.033L10.6205 104.674C10.8521 104.078 11.1989 103.533 11.6411 103.071C12.0832 102.609 12.612 102.239 13.1974 101.981C13.7827 101.723 14.4131 101.583 15.0525 101.569C15.6919 101.555 16.3279 101.667 16.924 101.899Z" fill="white"/>
</g>
</svg>
