<svg width="138" height="138" viewBox="0 0 138 138" fill="none" xmlns="http://www.w3.org/2000/svg">
<path opacity="0.5" d="M133.232 0C135.861 0 138 2.139 138 4.7955V40.4202C138 43.0629 135.861 45.2088 133.232 45.2088C132.604 45.2079 131.983 45.0833 131.403 44.8422C130.823 44.601 130.296 44.2481 129.853 43.8034C129.41 43.3587 129.058 42.8311 128.819 42.2506C128.579 41.6701 128.456 41.0481 128.457 40.4202V16.3668L93.6261 52.5573C100.988 61.8752 104.984 73.4086 104.963 85.284C104.963 114.402 81.4683 138 52.4814 138C23.5014 138 0 114.402 0 85.284C0 56.166 23.4945 32.568 52.4814 32.568C65.7225 32.568 77.8113 37.4946 87.0504 45.6159L121.702 9.5841H95.8617C95.2332 9.5841 94.6108 9.46019 94.0302 9.21946C93.4496 8.97872 92.9222 8.62589 92.4781 8.18113C92.034 7.73638 91.6819 7.20844 91.442 6.6275C91.2021 6.04656 91.0791 5.42402 91.08 4.7955C91.08 2.1459 93.219 0 95.8548 0H133.232ZM52.4814 42.159C28.7661 42.159 9.5427 61.4652 9.5427 85.284C9.5427 109.103 28.7661 128.416 52.4814 128.416C76.1967 128.416 95.4201 109.103 95.4201 85.2909C95.4201 61.4652 76.1967 42.159 52.4814 42.159Z" fill="white"/>
</svg>
