<svg width="97" height="124" viewBox="0 0 97 124" fill="none" xmlns="http://www.w3.org/2000/svg">
<path opacity="0.5" fill-rule="evenodd" clip-rule="evenodd" d="M67.6215 14.9739C58.7138 9.86973 48.1305 8.53552 38.1998 11.2648C28.2691 13.9941 19.8045 20.5633 14.668 29.5272C9.53162 38.4912 8.14414 49.1156 10.8108 59.0633C13.4775 69.011 19.98 77.4671 28.8877 82.5712C37.7954 87.6754 48.3787 89.0096 58.3094 86.2804C68.2401 83.5511 76.7047 76.9819 81.8411 68.0179C86.9775 59.054 88.365 48.4295 85.6983 38.4818C83.0316 28.5342 76.5292 20.0781 67.6215 14.9739ZM6.60728 24.9083C11.2583 16.7925 18.1509 10.1932 26.4481 5.91186C34.7453 1.63057 44.0901 -0.148515 53.3476 0.790676C62.6051 1.72987 71.377 5.34692 78.598 11.2026C85.8191 17.0582 91.1785 24.9005 94.0255 33.7771C96.8725 42.6536 97.0845 52.1825 94.6359 61.2065C92.1872 70.2305 87.1832 78.3613 80.2316 84.6115C73.28 90.8617 64.6798 94.9625 55.4755 96.4156C46.2713 97.8688 36.8589 96.612 28.3815 92.7977L25.1713 98.4001L34.5755 103.789C35.6444 104.401 36.4247 105.416 36.7447 106.61C37.0647 107.804 36.8982 109.078 36.2819 110.154C35.6655 111.23 34.6497 112.018 33.4581 112.346C32.2664 112.673 30.9964 112.513 29.9275 111.901L20.5232 106.512L12.0018 121.383C11.3854 122.459 10.3697 123.247 9.17798 123.575C7.9863 123.902 6.7163 123.742 5.64738 123.13C4.57845 122.517 3.79817 121.502 3.47816 120.309C3.15815 119.115 3.32465 117.84 3.94102 116.764L12.4625 101.893L3.05824 96.5042C1.98931 95.8917 1.20902 94.877 0.889016 93.6833C0.569013 92.4896 0.73551 91.2146 1.35188 90.139C1.96825 89.0633 2.98401 88.275 4.17569 87.9475C5.36738 87.6199 6.63737 87.7801 7.70629 88.3926L17.1105 93.7813L20.3208 88.1788C10.5987 81.2693 3.80857 70.9623 1.27344 59.2659C-1.26168 47.5695 0.639755 35.3215 6.60728 24.9083Z" fill="white"/>
</svg>
