<svg width="39" height="40" viewBox="0 0 39 40" fill="none" xmlns="http://www.w3.org/2000/svg">
<g clip-path="url(#clip0_4001_5583)">
<path d="M38.3487 20.2315C36.6902 21.9222 34.7111 23.2713 32.5251 24.2015C34.4069 22.5299 35.9117 20.4835 36.9413 18.196C37.9708 15.9085 38.502 13.4314 38.5 10.9266C38.5 10.7068 38.4911 10.4871 38.4834 10.2674C37.9356 12.0017 37.1225 13.6424 36.0725 15.1322C36.9739 12.6766 37.3213 10.055 37.0902 7.45189C36.8591 4.84883 36.0551 2.32764 34.7349 0.065916L34.6966 0C33.9769 3.85955 31.9928 7.37586 29.052 10.0037C29.3776 8.37103 29.9327 6.79173 30.701 5.31195C28.6125 6.56062 26.8012 8.21634 25.3766 10.1789C23.9521 12.1415 22.944 14.3702 22.4133 16.7302C22.0314 15.4055 21.8057 14.0414 21.7406 12.6652C20.0218 15.4595 19.1148 18.6703 19.1197 21.9432C19.1197 22.1415 19.1269 22.3382 19.1336 22.5348C18.7581 21.467 18.2811 20.437 17.709 19.4586C15.6467 21.8755 14.2732 24.7948 13.7305 27.9144L13.7466 27.9116L13.7416 27.9319L13.7305 27.9144C13.7205 27.9693 13.7128 28.0286 13.7034 28.0858C13.6939 28.1429 13.6901 28.2093 13.6829 28.2709C13.6757 28.3324 13.669 28.3868 13.6635 28.4461C13.6596 28.4917 13.6552 28.5367 13.6518 28.5829C13.643 28.7175 13.6363 28.8575 13.6363 29.0037C13.6363 29.1789 13.6452 29.3519 13.6585 29.5239C13.6585 29.5568 13.6629 29.5903 13.6657 29.6233C13.6808 29.7885 13.7017 29.9522 13.7283 30.1144C13.7327 30.1441 13.7388 30.1732 13.7438 30.2028C13.7726 30.3627 13.8053 30.5209 13.8447 30.6769C13.8447 30.6857 13.8485 30.695 13.8508 30.7038C13.8929 30.8686 13.9416 31.0252 13.9948 31.1828C14.0042 31.2114 14.0142 31.2378 14.0242 31.2691C14.0469 31.3328 14.0735 31.3943 14.0979 31.4569C13.254 31.5921 12.3852 31.1685 11.7014 30.1825C12.1164 32.2469 10.9257 33.4285 8.84278 33.0165C9.95098 33.7734 10.3555 34.7578 10.0574 35.6818C7.16568 36.9542 4.10581 37.8115 0.970091 38.2279C0.860616 38.2411 0.757941 38.2875 0.67613 38.3609C0.59432 38.4342 0.537382 38.5308 0.513111 38.6374C0.48884 38.7441 0.498424 38.8556 0.540556 38.9566C0.582688 39.0576 0.655304 39.1433 0.748454 39.2018L0.788353 39.226C0.865022 39.2716 0.95407 39.2925 1.04323 39.2859C1.2815 39.2551 1.51921 39.2233 1.75526 39.1881C1.88547 39.1689 2.01624 39.1518 2.1459 39.1332C2.57071 39.0651 2.99349 38.99 3.41424 38.9079C3.58047 38.8755 3.75113 38.8387 3.91958 38.8036C4.18148 38.7494 4.44284 38.6924 4.70364 38.6327C4.90828 38.5862 5.11238 38.5377 5.31592 38.4872C5.53479 38.4322 5.75145 38.3773 5.96865 38.3185C6.81311 38.0944 7.6461 37.8432 8.46765 37.5648C8.60839 37.5171 8.74913 37.4698 8.88877 37.4209C9.1503 37.3294 9.41018 37.2349 9.66839 37.1375C14.849 35.1857 19.5491 32.159 23.4539 28.26C27.3587 24.3611 30.378 19.6799 32.3096 14.5301C30.5748 19.6273 27.7725 24.3033 24.0864 28.251C20.4003 32.1988 15.9137 35.3293 10.9212 37.4369C11.6288 37.8983 11.9347 38.7975 11.6931 40C12.896 38.2658 14.6714 38.2658 15.8743 40C15.4588 37.9356 16.6501 36.7546 18.733 37.1666C18.365 36.9566 18.0537 36.6615 17.8257 36.3065C17.5977 35.9514 17.4597 35.5469 17.4236 35.1275C17.6335 35.2348 17.8488 35.3314 18.0686 35.417C18.2415 35.4829 18.4177 35.5421 18.5972 35.5944C18.7501 35.6389 18.9058 35.6785 19.0632 35.7131H19.0715C19.2283 35.7471 19.3868 35.7763 19.5475 35.7993L19.5691 35.8021C19.7082 35.8219 19.8489 35.8367 19.9902 35.8477L20.096 35.8559C20.2179 35.8636 20.3406 35.8684 20.464 35.8702H20.4728H20.5233H20.5526C20.5897 35.8702 20.6241 35.8702 20.6607 35.8674C23.3862 35.8434 26.0704 35.2048 28.5101 34C30.9497 32.7952 33.0809 31.0558 34.7421 28.9136C32.3934 30.427 29.7193 31.3731 26.9348 31.6756C26.6345 31.7085 26.333 31.7365 26.0283 31.7541C26.3646 31.6635 26.696 31.5619 27.0256 31.4525C29.6564 30.5716 32.0467 29.1008 34.0106 27.1546C35.9745 25.2084 37.459 22.8393 38.3487 20.2315Z" fill="#FF0A78"/>
</g>
<defs>
<clipPath id="clip0_4001_5583">
<rect width="38" height="40" fill="white" transform="translate(0.5)"/>
</clipPath>
</defs>
</svg>
