<svg width="128" height="129" viewBox="0 0 128 129" fill="none" xmlns="http://www.w3.org/2000/svg">
<path d="M127.996 64.4706C114.282 71.4227 104.092 95.4696 109.235 109.707C94.9969 104.565 70.9025 114.755 63.9979 128.469C57.0458 114.755 32.9989 104.565 18.7613 109.707C23.904 95.4696 13.7138 71.3751 0 64.4706C13.7138 57.5184 23.904 33.4716 18.7613 19.234C32.9989 24.3766 57.0934 14.1865 63.9979 0.472656C70.9501 14.1865 94.9969 24.3766 109.235 19.234C104.092 33.4716 114.282 57.5184 127.996 64.4706Z" fill="#FF0A78"/>
<path d="M95.9497 60.3277C93.1402 63.2324 89.7118 65.5657 85.95 67.2323C92.2355 61.5658 96.2354 53.3756 96.2354 44.233C96.2354 43.8521 96.2354 43.4711 96.1878 43.0902C95.2354 46.1377 93.8069 48.9472 92.045 51.5185C93.2355 48.1853 93.9021 44.614 93.9021 40.8998C93.9021 35.2333 92.3784 29.9478 89.7118 25.3765C89.7118 25.3289 89.6642 25.2812 89.6642 25.2812C88.4261 32.0906 84.9024 38.138 79.9502 42.614C80.5216 39.757 81.474 36.9952 82.8072 34.4714C75.6646 38.757 70.4267 45.8996 68.5696 54.2803C67.903 52.0423 67.522 49.6614 67.4268 47.2329C64.5697 51.8994 62.9031 57.4231 62.9031 63.3276C62.9031 63.661 62.9031 63.9943 62.9031 64.3752C62.2365 62.5181 61.427 60.7087 60.4746 59.0421C57.6652 62.3753 55.5224 66.3275 54.332 70.6607C54.0463 71.6607 53.8082 72.6607 53.6653 73.7083H53.7129C53.7129 73.7083 53.7129 73.7083 53.7129 73.7559V73.7083C53.7129 73.8035 53.6653 73.8987 53.6653 73.994C53.6653 74.0892 53.6653 74.2321 53.6177 74.3273C53.6177 74.4225 53.6177 74.5178 53.5701 74.613C53.5701 74.7082 53.5701 74.7558 53.5701 74.8511C53.5701 75.0892 53.5225 75.3273 53.5225 75.5653C53.5225 75.8511 53.5225 76.1844 53.5701 76.4701C53.5701 76.5177 53.5701 76.5653 53.5701 76.6605C53.6177 76.9463 53.6177 77.232 53.6653 77.5177C53.6653 77.5653 53.6653 77.6129 53.7129 77.6605C53.7606 77.9462 53.8082 78.2319 53.9034 78.47V78.5176C53.9987 78.8033 54.0463 79.089 54.1415 79.3271C54.1415 79.3747 54.1891 79.4224 54.1891 79.47C54.2367 79.5652 54.2844 79.7081 54.332 79.8033C52.9034 80.0414 51.3797 79.3271 50.1893 77.6129C50.9035 81.1842 48.856 83.2318 45.2846 82.5175C47.1893 83.8508 47.9036 85.5174 47.3798 87.1364C42.4752 89.2792 37.2373 90.8029 31.7613 91.5648C30.9042 91.6601 30.6661 92.8029 31.3803 93.2314L31.428 93.2791C31.5708 93.3743 31.7137 93.3743 31.8565 93.3743C32.2851 93.3267 32.666 93.2791 33.0946 93.1838C33.3327 93.1362 33.5231 93.1362 33.7612 93.0886C34.4755 92.9934 35.2374 92.8505 35.9516 92.7076C36.2373 92.66 36.523 92.5648 36.8087 92.5172C37.2373 92.4219 37.7135 92.3267 38.142 92.2315C38.4753 92.1362 38.8563 92.0886 39.1896 91.9934C39.5705 91.8982 39.9515 91.8029 40.3324 91.7077C41.761 91.3267 43.2371 90.8982 44.618 90.422C44.8561 90.3268 45.0942 90.2792 45.3323 90.1839C45.7608 90.0411 46.237 89.8506 46.6656 89.7077C64.6174 82.8984 78.9026 68.5656 85.5691 50.5185C79.5693 68.4227 66.0459 82.8984 48.8083 90.2315C50.0464 91.041 50.5702 92.6124 50.1416 94.66C52.1892 91.6601 55.2843 91.6601 57.3319 94.66C56.6176 91.0887 58.6652 89.0411 62.2365 89.7554C60.7603 88.7554 59.9985 87.4697 59.9985 86.2317C60.3794 86.4221 60.7127 86.565 61.0937 86.7555C61.3794 86.8507 61.7127 86.9935 61.9984 87.0412C62.2841 87.1364 62.5222 87.184 62.8079 87.2316C63.0936 87.2793 63.3317 87.3269 63.6174 87.3745H63.665C63.9031 87.4221 64.1412 87.4221 64.3793 87.4697C64.4269 87.4697 64.5221 87.4697 64.5697 87.4697C64.7602 87.4697 64.9983 87.4697 65.1888 87.5173C65.2364 87.5173 65.2364 87.5173 65.284 87.5173H65.3316C65.3792 87.5173 65.4745 87.5173 65.5221 87.5173C75.3789 87.4221 84.1405 82.708 89.7118 75.4701C85.7595 78.0415 81.1883 79.7081 76.2836 80.2795C75.7599 80.3271 75.2361 80.3747 74.7123 80.4223C75.2837 80.2795 75.8551 80.089 76.4265 79.8985C85.6167 76.7082 92.8545 69.4703 95.9497 60.3277Z" fill="#140A3C"/>
</svg>
