<svg width="153" height="55" viewBox="0 0 153 55" fill="none" xmlns="http://www.w3.org/2000/svg">
<g clip-path="url(#clip0_4001_2318)">
<path d="M62.1477 44.9482H60.5701V48.9602H59.6929V44.9482H58.1221V44.2002H62.1477V44.9482Z" fill="white"/>
<path d="M66.8395 46.9029C67.0276 47.1627 67.1093 47.4846 67.0675 47.8027C67.0258 48.1207 66.8639 48.4107 66.6151 48.6131C66.2176 48.8694 65.7481 48.991 65.2761 48.9599H63.0186V44.1999H65.1469C65.5871 44.1741 66.0243 44.2858 66.3982 44.5195C66.5432 44.6202 66.6604 44.7559 66.7388 44.914C66.8173 45.0722 66.8545 45.2476 66.8469 45.4239C66.8526 45.6524 66.7899 45.8774 66.6667 46.0699C66.5389 46.2575 66.3573 46.4021 66.1459 46.4847C66.4161 46.5456 66.6594 46.6924 66.8395 46.9029ZM63.889 46.2331H65.0715C65.3019 46.2484 65.5311 46.1887 65.7249 46.0631C65.8002 46.0037 65.86 45.9268 65.8989 45.8391C65.9379 45.7515 65.955 45.6557 65.9487 45.5599C65.9547 45.4637 65.9376 45.3675 65.8986 45.2793C65.8597 45.1912 65.8001 45.1137 65.7249 45.0533C65.5321 44.9253 65.3024 44.8643 65.0715 44.8799H63.889V46.2331ZM66.1867 47.5727C66.1867 47.1103 65.8741 46.8791 65.249 46.8791H63.889V48.2799H65.249C65.8746 48.2799 66.1871 48.0442 66.1867 47.5727Z" fill="white"/>
<path d="M69.0757 48.7116C68.6949 48.5092 68.3772 48.2057 68.1577 47.8344C67.9398 47.4522 67.8252 47.0198 67.8252 46.5798C67.8252 46.1398 67.9398 45.7074 68.1577 45.3252C68.3772 44.954 68.6949 44.6504 69.0757 44.448C69.482 44.2402 69.9318 44.1318 70.3881 44.1318C70.8445 44.1318 71.2943 44.2402 71.7005 44.448C72.0809 44.6495 72.3985 44.9518 72.6185 45.3218C72.8373 45.705 72.9524 46.1386 72.9524 46.5798C72.9524 47.021 72.8373 47.4547 72.6185 47.8378C72.3985 48.2078 72.0809 48.5101 71.7005 48.7116C71.2943 48.9194 70.8445 49.0278 70.3881 49.0278C69.9318 49.0278 69.482 48.9194 69.0757 48.7116ZM71.2449 48.0384C71.4962 47.8986 71.7035 47.6913 71.8433 47.44C71.9866 47.1759 72.0616 46.8803 72.0616 46.5798C72.0616 46.2794 71.9866 45.9837 71.8433 45.7196C71.7035 45.4683 71.4962 45.2611 71.2449 45.1212C70.9812 44.9806 70.687 44.9071 70.3881 44.9071C70.0893 44.9071 69.795 44.9806 69.5313 45.1212C69.2803 45.2613 69.0734 45.4685 68.9336 45.7196C68.7903 45.9837 68.7153 46.2794 68.7153 46.5798C68.7153 46.8803 68.7903 47.1759 68.9336 47.44C69.0734 47.6912 69.2803 47.8984 69.5313 48.0384C69.795 48.179 70.0893 48.2526 70.3881 48.2526C70.687 48.2526 70.9812 48.179 71.2449 48.0384Z" fill="white"/>
<path d="M73.4957 43.6222C73.4575 43.5839 73.4275 43.5382 73.4077 43.488C73.3878 43.4377 73.3784 43.3838 73.3801 43.3298C73.3782 43.2747 73.3874 43.2198 73.4073 43.1684C73.4272 43.1169 73.4573 43.0701 73.4957 43.0306C73.575 42.9563 73.6795 42.915 73.7881 42.915C73.8967 42.915 74.0013 42.9563 74.0805 43.0306C74.119 43.0701 74.1491 43.1169 74.169 43.1684C74.1888 43.2198 74.1981 43.2747 74.1961 43.3298C74.1951 43.4105 74.1705 43.4891 74.1254 43.556C74.0802 43.6228 74.0165 43.675 73.942 43.7061C73.8676 43.7372 73.7856 43.7458 73.7063 43.7309C73.627 43.716 73.5538 43.6782 73.4957 43.6222ZM74.0057 44.2002H74.8897V48.9602H74.0057V44.2002ZM74.8149 43.6222C74.7767 43.5839 74.7467 43.5382 74.7269 43.488C74.707 43.4377 74.6976 43.3838 74.6993 43.3298C74.6974 43.2747 74.7066 43.2198 74.7265 43.1684C74.7464 43.1169 74.7765 43.0701 74.8149 43.0306C74.8942 42.9563 74.9987 42.915 75.1073 42.915C75.2159 42.915 75.3205 42.9563 75.3997 43.0306C75.4384 43.0699 75.4686 43.1168 75.4885 43.1682C75.5084 43.2197 75.5175 43.2747 75.5153 43.3298C75.5143 43.4105 75.4897 43.4891 75.4446 43.556C75.3994 43.6228 75.3357 43.675 75.2612 43.7061C75.1868 43.7372 75.1048 43.7458 75.0255 43.7309C74.9462 43.716 74.873 43.6782 74.8149 43.6222Z" fill="white"/>
<path d="M81.9215 44.2002V48.9602H81.0511V47.6342H79.7795L78.8955 48.9602H77.9639L78.9839 47.4914C78.6734 47.3843 78.4053 47.1805 78.2189 46.91C78.0327 46.6243 77.9379 46.2887 77.9469 45.9478C77.9382 45.6182 78.0231 45.2928 78.1917 45.0094C78.3579 44.7443 78.5994 44.5347 78.8853 44.4076C79.2177 44.2639 79.5773 44.1943 79.9393 44.2036L81.9215 44.2002ZM79.1335 45.1998C79.034 45.2932 78.9565 45.4076 78.9065 45.5345C78.8566 45.6615 78.8354 45.798 78.8445 45.9342C78.8363 46.0678 78.8569 46.2017 78.905 46.3266C78.9531 46.4516 79.0276 46.5648 79.1233 46.6584C79.351 46.8429 79.6402 46.934 79.9325 46.9134H81.0477V44.9482H79.9679C79.6696 44.9287 79.3743 45.0181 79.1369 45.1998H79.1335Z" fill="white"/>
<path d="M84.2515 48.7119C83.8732 48.51 83.5579 48.2076 83.3403 47.8381C83.123 47.4545 83.0088 47.021 83.0088 46.5801C83.0088 46.1392 83.123 45.7058 83.3403 45.3221C83.5598 44.9529 83.876 44.6507 84.2549 44.4483C84.6552 44.2343 85.1032 44.1255 85.5571 44.1321C85.9231 44.1276 86.2862 44.197 86.6247 44.3361C86.9392 44.4669 87.2186 44.6695 87.4407 44.9277L86.8695 45.4649C86.7101 45.286 86.514 45.1435 86.2946 45.0473C86.0751 44.951 85.8375 44.9033 85.5979 44.9073C85.2919 44.9023 84.9899 44.976 84.7207 45.1215C84.4671 45.2592 84.2574 45.4654 84.1155 45.7165C83.9726 45.982 83.8979 46.2787 83.8979 46.5801C83.8979 46.8816 83.9726 47.1783 84.1155 47.4437C84.2574 47.6949 84.4671 47.9011 84.7207 48.0387C84.9899 48.1842 85.2919 48.258 85.5979 48.2529C85.8381 48.2567 86.0763 48.2082 86.2958 48.1107C86.5154 48.0133 86.7112 47.8692 86.8695 47.6885L87.4407 48.2325C87.2187 48.4909 86.9392 48.6935 86.6247 48.8241C86.2849 48.9631 85.9207 49.0325 85.5537 49.0281C85.0998 49.0347 84.6518 48.9259 84.2515 48.7119Z" fill="white"/>
<path d="M90.1228 46.9542H89.2389V48.9602H88.3691V44.2002H89.2389V46.1926H90.1507L91.5175 44.2002H92.4559L90.8307 46.5054L92.5171 48.9602H91.5175L90.1228 46.9542Z" fill="white"/>
<path d="M96.2589 44.4039C96.5464 44.5245 96.7914 44.7282 96.9627 44.9887C97.123 45.2625 97.2075 45.5741 97.2075 45.8914C97.2075 46.2087 97.123 46.5203 96.9627 46.7941C96.7921 47.0561 96.547 47.261 96.2589 47.3823C95.9179 47.5252 95.5507 47.5947 95.1811 47.5863H94.1067V48.9599H93.2227V44.1999H95.1811C95.5507 44.1915 95.9179 44.261 96.2589 44.4039ZM96.0175 46.5935C96.112 46.503 96.1872 46.3943 96.2386 46.2739C96.29 46.1535 96.3165 46.024 96.3165 45.8931C96.3165 45.7622 96.29 45.6327 96.2386 45.5123C96.1872 45.3919 96.112 45.2832 96.0175 45.1927C95.7619 45.0127 95.4521 44.9263 95.1403 44.9479H94.1067V46.8383H95.1403C95.4514 46.8595 95.7604 46.773 96.0154 46.5935H96.0175Z" fill="white"/>
<path d="M101.064 47.8586H98.6838L98.2146 48.9602H97.3027L99.4454 44.2002H100.315L102.465 48.9602H101.539L101.064 47.8586ZM100.771 47.165L99.8738 45.0842L98.9823 47.165H100.771Z" fill="white"/>
<path d="M107.122 46.903C107.309 47.1629 107.391 47.4847 107.349 47.8026C107.307 48.1205 107.146 48.4104 106.897 48.6131C106.5 48.8695 106.03 48.9911 105.558 48.96H103.301V44.2H105.428C105.869 44.1741 106.306 44.2858 106.68 44.5196C106.825 44.6201 106.942 44.7558 107.021 44.914C107.099 45.0721 107.136 45.2476 107.128 45.4239C107.135 45.6525 107.072 45.8775 106.948 46.07C106.821 46.2577 106.639 46.4023 106.428 46.4847C106.698 46.5457 106.942 46.6924 107.122 46.903ZM104.17 46.2331H105.354C105.584 46.2483 105.813 46.1887 106.007 46.0631C106.082 46.0036 106.142 45.9268 106.181 45.8391C106.22 45.7515 106.237 45.6557 106.231 45.56C106.237 45.4638 106.22 45.3676 106.181 45.2795C106.142 45.1913 106.082 45.1138 106.007 45.0534C105.814 44.9254 105.585 44.8644 105.354 44.88H104.17V46.2331ZM106.469 47.5727C106.469 47.1103 106.156 46.8792 105.53 46.8792H104.17V48.28H105.53C106.156 48.28 106.469 48.0442 106.469 47.5727Z" fill="white"/>
<path d="M108.475 44.2002H109.345V48.9602H108.475V44.2002Z" fill="white"/>
<path d="M116.594 46.903C116.782 47.1629 116.863 47.4847 116.821 47.8026C116.78 48.1205 116.618 48.4104 116.37 48.6131C115.972 48.8695 115.502 48.9911 115.03 48.96H112.772V44.2H114.901C115.341 44.1741 115.778 44.2858 116.152 44.5196C116.297 44.6201 116.414 44.7558 116.493 44.914C116.571 45.0721 116.609 45.2476 116.601 45.4239C116.607 45.6525 116.544 45.8775 116.421 46.07C116.293 46.2574 116.112 46.4019 115.9 46.4847C116.171 46.5457 116.414 46.6924 116.594 46.903ZM113.643 46.2331H114.826C115.056 46.2483 115.285 46.1887 115.479 46.0631C115.554 46.0038 115.614 45.9269 115.653 45.8393C115.692 45.7516 115.709 45.6557 115.703 45.56C115.709 45.4637 115.692 45.3674 115.653 45.2793C115.614 45.1911 115.554 45.1136 115.479 45.0534C115.286 44.9254 115.057 44.8644 114.826 44.88H113.643V46.2331ZM115.941 47.5727C115.941 47.1103 115.628 46.8792 115.003 46.8792H113.643V48.28H115.003C115.628 48.28 115.94 48.0442 115.94 47.5727H115.941Z" fill="white"/>
<path d="M117.947 44.2002H118.818V48.9602H117.947V44.2002Z" fill="white"/>
<path d="M124.931 48.2117V49.9729H124.115V48.9597H120.463V49.9729H119.641L119.647 48.2117H119.851C120.151 48.1981 120.36 47.9771 120.48 47.5487C120.623 46.947 120.697 46.3311 120.701 45.7127L120.756 44.2031H124.244V48.2151L124.931 48.2117ZM121.327 47.3311C121.289 47.6531 121.162 47.958 120.96 48.2117H123.374V44.9477H121.511L121.477 45.7909C121.464 46.3073 121.414 46.8221 121.327 47.3311Z" fill="white"/>
<path d="M129.426 44.2002V48.9602H128.549V47.165C128.141 47.3245 127.708 47.4098 127.271 47.4166C126.764 47.4496 126.264 47.2933 125.866 46.978C125.697 46.8166 125.565 46.62 125.48 46.402C125.395 46.1841 125.358 45.9501 125.373 45.7166V44.2002H126.251V45.6214C126.241 45.763 126.262 45.905 126.313 46.0376C126.363 46.1702 126.442 46.2904 126.543 46.3898C126.778 46.5804 127.077 46.6751 127.379 46.655C127.783 46.6567 128.182 46.5709 128.549 46.4034V44.2002H129.426Z" fill="white"/>
<path d="M134.947 44.2002L132.88 48.0422C132.73 48.3464 132.507 48.6091 132.231 48.8072C131.991 48.9731 131.706 49.0621 131.415 49.0622C131.174 49.0608 130.935 49.0099 130.714 48.9126L130.932 48.219C131.081 48.2713 131.237 48.3011 131.394 48.3074C131.541 48.3036 131.684 48.2606 131.808 48.1829C131.933 48.1052 132.034 47.9955 132.102 47.8654L132.177 47.7498L130.279 44.2002H131.224L132.632 46.995L134.08 44.2002H134.947Z" fill="white"/>
<path d="M139.15 44.9482H137.572V48.9602H136.695V44.9482H135.124V44.2002H139.15V44.9482Z" fill="white"/>
<path d="M143.535 44.9482H141.958V48.9602H141.081V44.9482H139.51V44.2002H143.535V44.9482Z" fill="white"/>
<path d="M147.831 44.2002V48.9602H146.961V47.6342H145.689L144.805 48.9602H143.874L144.894 47.4914C144.583 47.3846 144.315 47.1808 144.129 46.91C143.943 46.624 143.85 46.2884 143.86 45.9478C143.851 45.6182 143.936 45.2928 144.105 45.0094C144.271 44.7443 144.513 44.5347 144.799 44.4076C145.131 44.2639 145.491 44.1943 145.853 44.2036L147.831 44.2002ZM145.043 45.1998C144.944 45.2931 144.866 45.4074 144.816 45.5344C144.766 45.6615 144.745 45.798 144.754 45.9342C144.746 46.0678 144.767 46.2017 144.815 46.3266C144.863 46.4516 144.937 46.5648 145.033 46.6584C145.261 46.8429 145.55 46.934 145.842 46.9134H146.958V44.9482H145.876C145.579 44.9293 145.285 45.0187 145.048 45.1998H145.043Z" fill="white"/>
<path d="M55.8272 37.8278C55.5478 37.6215 55.3201 37.3533 55.162 37.0441C55.0039 36.735 54.9197 36.3934 54.916 36.0462C54.916 35.2302 55.1427 34.7088 55.596 34.4822C55.921 34.2937 56.2828 34.1777 56.6568 34.1422C56.9237 34.1314 57.188 34.1975 57.4184 34.3326C57.6177 34.459 57.7176 34.5774 57.7176 34.6862C57.7176 34.7224 57.6451 34.8131 57.5 34.9581C57.3318 35.1741 57.2538 35.4468 57.2824 35.7191C57.2771 36.0671 57.3979 36.4052 57.6224 36.6711C57.7413 36.8086 57.8902 36.9169 58.0577 36.9876C58.2251 37.0584 58.4066 37.0897 58.588 37.0791C59.7304 37.0791 60.8456 35.9097 61.9336 33.5709C61.9936 33.3856 62.0301 33.1935 62.0424 32.9991C62.0325 32.7668 61.9866 32.5374 61.9064 32.3191C61.5437 31.5031 60.9363 29.9892 60.084 27.7774C59.3401 25.8004 58.7326 24.2953 58.2616 23.2622C58.0606 22.7289 57.7658 22.2358 57.3912 21.8063C57.0555 21.5163 56.6365 21.3403 56.1944 21.3038C56.0964 21.2773 55.9963 21.2591 55.8952 21.2493C55.7497 21.2317 55.6592 21.1854 55.6232 21.1134C55.5786 20.9916 55.5601 20.8619 55.5688 20.7326C55.5688 20.515 55.6273 20.379 55.7456 20.3246C55.8834 20.2658 56.031 20.2335 56.1808 20.2293C56.3528 20.2198 56.4664 20.2158 56.5208 20.2158C57.4189 20.1204 58.3254 20.2856 59.132 20.6917C59.8472 21.1603 60.3987 21.8401 60.7096 22.6366C61.1081 23.5609 61.4617 24.4404 61.7704 25.275C62.4957 27.2334 63.0851 28.6659 63.5384 29.5726H63.62L66.2856 22.4462C66.3573 22.2349 66.4029 22.0157 66.4216 21.7934C66.4266 21.7051 66.4028 21.6175 66.3537 21.5439C66.3047 21.4703 66.233 21.4147 66.1496 21.3854C65.8588 21.298 65.5552 21.2612 65.252 21.2766H65.0888C64.9782 21.2867 64.8676 21.2578 64.776 21.195C64.6899 21.0769 64.6467 20.9329 64.6536 20.787C64.654 20.6585 64.6867 20.5322 64.7488 20.4197C64.7741 20.3658 64.8146 20.3203 64.8653 20.2891C64.916 20.2578 64.9748 20.242 65.0344 20.2436C66.068 20.298 66.9475 20.3252 67.6728 20.3252C67.9625 20.3252 68.5246 20.3071 69.3592 20.2708L69.9304 20.2436C69.9916 20.2429 70.0518 20.259 70.1045 20.29C70.1573 20.3211 70.2005 20.3659 70.2296 20.4197C70.2994 20.5296 70.337 20.6568 70.3384 20.787C70.3461 20.9352 70.2976 21.081 70.2024 21.195C70.105 21.256 69.9907 21.2845 69.876 21.2766C69.3394 21.2461 68.8044 21.3588 68.3256 21.603C67.8884 21.9187 67.5642 22.3667 67.4008 22.8807C66.9833 23.9147 66.3124 25.5741 65.388 27.8589C64.4637 30.1437 63.7746 31.8301 63.3208 32.9181C62.7426 34.3477 61.9741 35.6927 61.036 36.9166C60.6839 37.4217 60.2165 37.8357 59.6726 38.1242C59.1286 38.4128 58.5237 38.5675 57.908 38.5758C57.1474 38.5826 56.4094 38.3173 55.8272 37.8278Z" fill="white"/>
<path d="M76.5278 32.0604C76.2907 31.8283 76.1023 31.5511 75.9738 31.2452C75.8454 30.9392 75.7794 30.6106 75.7798 30.2788C75.7691 29.854 75.9197 29.4409 76.2015 29.1228C76.3425 28.9647 76.517 28.8399 76.7122 28.7576C76.9074 28.6753 77.1186 28.6374 77.3302 28.6468C77.4773 28.642 77.6241 28.6604 77.7654 28.7012C77.8742 28.7379 77.9375 28.7828 77.9558 28.8372C77.9399 28.9309 77.9125 29.0222 77.8742 29.1092C77.8164 29.275 77.7888 29.4498 77.7927 29.6253C77.7986 29.9494 77.9246 30.2598 78.1462 30.4964C78.2555 30.6275 78.393 30.7323 78.5484 30.803C78.7038 30.8736 78.8732 30.9083 79.0438 30.9044C79.7869 30.9044 80.3173 30.3423 80.635 29.218C80.9626 28.035 81.1767 26.8234 81.2742 25.5997C81.3286 24.9651 81.3558 24.0584 81.3558 22.8797C81.3841 22.4863 81.2942 22.0935 81.0974 21.7516C80.9247 21.5068 80.5394 21.3844 79.9415 21.3844H79.7782C79.6635 21.3927 79.5492 21.3641 79.4519 21.3028C79.3789 21.2484 79.3335 21.1124 79.3158 20.8948C79.3141 20.7382 79.3515 20.5837 79.4246 20.4453C79.4531 20.3831 79.4992 20.3306 79.5572 20.2943C79.6153 20.2581 79.6827 20.2396 79.7511 20.2413C80.8205 20.2957 81.7543 20.3229 82.5527 20.3229H87.9111C88.7271 20.3229 89.67 20.2957 90.7398 20.2413C90.8082 20.2398 90.8755 20.2583 90.9335 20.2946C90.9915 20.3308 91.0376 20.3832 91.0662 20.4453C91.1389 20.5839 91.1763 20.7383 91.175 20.8948C91.1565 21.1301 91.1066 21.2706 91.0254 21.3164C90.8737 21.3736 90.7112 21.3969 90.5494 21.3844C90.1961 21.3522 89.8421 21.4383 89.543 21.6292C89.358 21.7685 89.2318 21.972 89.1894 22.1997C89.1456 22.5426 89.1274 22.8884 89.135 23.234V29.8436C89.1273 30.189 89.1455 30.5345 89.1894 30.8772C89.2316 31.1052 89.3578 31.309 89.543 31.4484C89.8423 31.6387 90.1962 31.7246 90.5494 31.6925H90.7127C90.8275 31.6843 90.9419 31.7131 91.039 31.7748C91.1343 31.8887 91.1829 32.0345 91.175 32.1828C91.1778 32.3178 91.1399 32.4505 91.0662 32.5636C91.0308 32.6169 90.9821 32.6601 90.9248 32.6887C90.8675 32.7173 90.8038 32.7305 90.7398 32.7268C89.6881 32.6724 88.7452 32.6452 87.9111 32.6452C87.1857 32.6452 86.3153 32.6724 85.2998 32.7268C85.2359 32.7306 85.1721 32.7175 85.1148 32.6889C85.0575 32.6603 85.0088 32.617 84.9734 32.5636C84.8995 32.4506 84.8616 32.3178 84.8646 32.1828C84.8823 31.9468 84.9326 31.8061 85.0142 31.7612C85.1569 31.7052 85.3102 31.682 85.463 31.6932C85.7649 31.7388 86.0731 31.6764 86.3334 31.5171C86.4084 31.46 86.471 31.3884 86.5177 31.3067C86.5645 31.2249 86.5943 31.1346 86.6054 31.0411C86.6231 30.8597 86.6412 30.461 86.6598 29.845V21.1954H84.0215C83.4231 21.1954 83.0468 21.3223 82.8927 21.5762C82.7372 21.8346 82.6571 22.1314 82.6615 22.433V23.045C82.6278 24.5374 82.5098 26.0267 82.3078 27.5058C82.125 28.8418 81.7206 30.138 81.1111 31.341C80.8379 31.8337 80.4281 32.2371 79.9311 32.5025C79.434 32.7679 78.8709 32.884 78.3094 32.837C77.9746 32.8396 77.643 32.7719 77.3361 32.6381C77.0292 32.5043 76.7538 32.3075 76.5278 32.0604Z" fill="white"/>
<path d="M92.9025 32.5644C92.82 32.4548 92.7766 32.3207 92.7794 32.1836C92.7976 31.9474 92.8522 31.8069 92.9433 31.762C93.0999 31.7062 93.2663 31.683 93.4322 31.694C93.7854 31.7261 94.1394 31.6402 94.4386 31.4499C94.5302 31.3818 94.6074 31.2963 94.6657 31.1983C94.7241 31.1002 94.7625 30.9916 94.7786 30.8787C94.8114 30.5352 94.8251 30.1901 94.8194 29.8451V23.6163C94.8251 23.2713 94.8114 22.9262 94.7786 22.5827C94.7625 22.4697 94.7242 22.3611 94.6658 22.263C94.6075 22.165 94.5302 22.0795 94.4386 22.0115C94.1395 21.8208 93.7855 21.7347 93.4322 21.7667C93.2638 21.7772 93.0955 21.7444 92.9433 21.6715C92.8338 21.6075 92.7794 21.4586 92.7794 21.2227C92.7811 21.1093 92.8195 20.9996 92.8889 20.9099C92.9277 20.859 92.9768 20.8169 93.0331 20.7864C93.0894 20.7559 93.1515 20.7377 93.2153 20.7331C94.217 20.6042 95.2017 20.3671 96.1522 20.0259C96.3542 19.948 96.5642 19.8932 96.7785 19.8627H96.8594C97.15 19.8627 97.2953 20.0349 97.2953 20.3795V29.8451C97.2876 30.1905 97.3057 30.536 97.3497 30.8787C97.3919 31.1066 97.5181 31.3105 97.7033 31.4499C98.0026 31.6402 98.3565 31.7261 98.7097 31.694H98.8722C98.987 31.6856 99.1015 31.7144 99.1986 31.7763C99.2712 31.8307 99.3165 31.9667 99.3346 32.1843C99.3375 32.3193 99.2993 32.4521 99.2251 32.5651C99.1898 32.6185 99.1411 32.6617 99.0838 32.6904C99.0265 32.719 98.9627 32.7321 98.8987 32.7283C97.8475 32.6739 96.8955 32.6467 96.0427 32.6467C95.2267 32.6467 94.2838 32.6739 93.2139 32.7283C93.1526 32.7285 93.0921 32.7137 93.0378 32.6852C92.9835 32.6566 92.937 32.6151 92.9025 32.5644ZM94.6297 16.3661C94.463 16.2182 94.3305 16.0358 94.2411 15.8317C94.1518 15.6275 94.1078 15.4064 94.1122 15.1836C94.121 14.9613 94.1824 14.7443 94.2912 14.5504C94.4001 14.3564 94.5534 14.191 94.7385 14.0677C95.1396 13.7473 95.6388 13.5747 96.1522 13.5788C96.3616 13.5725 96.5699 13.6118 96.7626 13.694C96.9552 13.7762 97.1277 13.8993 97.2681 14.0548C97.5636 14.3872 97.7195 14.8207 97.7033 15.2652C97.7044 15.4777 97.6587 15.6879 97.5692 15.8806C97.4798 16.0734 97.3488 16.244 97.1858 16.3804C96.8343 16.6916 96.3773 16.857 95.9081 16.8428C95.4361 16.8566 94.9774 16.6855 94.6297 16.3661Z" fill="white"/>
<path d="M101.02 32.4556C100.802 32.3493 100.612 32.1928 100.465 31.999C100.319 31.8052 100.22 31.5796 100.177 31.3404V31.2316C100.172 31.1195 100.206 31.0092 100.272 30.9188C100.302 30.8791 100.342 30.8473 100.387 30.826C100.432 30.8047 100.481 30.7945 100.531 30.7964C100.676 30.7964 100.812 30.9147 100.939 31.15C101.04 31.3198 101.169 31.4715 101.32 31.5988C101.479 31.7078 101.671 31.7603 101.864 31.7477C102.023 31.7433 102.179 31.6969 102.315 31.6134C102.451 31.5299 102.563 31.412 102.639 31.2717C102.923 30.8004 103.165 30.3042 103.36 29.7894C103.63 29.1412 103.939 28.5097 104.284 27.8983C104.586 27.3871 104.988 26.9428 105.468 26.5927C106.013 26.2058 106.662 25.9925 107.331 25.9807V25.9263C106.699 25.5614 106.196 25.0104 105.889 24.3487C105.817 24.2041 105.694 23.9228 105.522 23.5048C105.372 23.1228 105.145 22.7756 104.856 22.4848C104.722 22.3556 104.565 22.2542 104.392 22.1866C104.219 22.119 104.035 22.0866 103.849 22.0911C103.703 22.0881 103.559 22.1227 103.43 22.1917C103.302 22.2606 103.193 22.3616 103.115 22.4848C102.927 22.7711 102.832 23.1086 102.843 23.4511C102.843 23.5238 102.82 23.5687 102.775 23.5871C102.727 23.6063 102.676 23.6158 102.625 23.6149C102.416 23.5998 102.214 23.5294 102.04 23.4109C101.805 23.2675 101.601 23.0775 101.442 22.8527C101.266 22.6075 101.176 22.3117 101.184 22.0102C101.185 21.7473 101.24 21.4874 101.345 21.2465C101.45 21.0056 101.603 20.7888 101.796 20.6094C102.01 20.4027 102.263 20.2418 102.542 20.1365C102.82 20.0313 103.117 19.9839 103.414 19.9973C103.911 20.0168 104.39 20.1876 104.788 20.4869C105.145 20.7613 105.445 21.103 105.672 21.4927C105.938 21.9763 106.174 22.4759 106.379 22.9887C106.451 23.1335 106.528 23.3056 106.61 23.5048C106.702 23.7279 106.807 23.9458 106.923 24.1576C107.467 25.2093 108.129 25.7354 108.908 25.7359H109.942V23.1247C109.942 23.0159 109.937 22.7534 109.928 22.3359C109.943 22.1811 109.925 22.025 109.875 21.8775C109.826 21.7301 109.747 21.5944 109.643 21.4791C109.379 21.3035 109.059 21.2309 108.745 21.2751H108.582C108.471 21.2852 108.361 21.2563 108.269 21.1935C108.183 21.0754 108.14 20.9314 108.147 20.7855C108.144 20.6507 108.182 20.5181 108.256 20.4053C108.287 20.3542 108.331 20.3122 108.383 20.2835C108.436 20.2549 108.495 20.2406 108.555 20.2421C109.588 20.2965 110.468 20.3237 111.193 20.3237C112.045 20.3237 112.997 20.2965 114.049 20.2421C114.113 20.2385 114.177 20.2516 114.234 20.2802C114.291 20.3089 114.34 20.352 114.376 20.4053C114.449 20.5183 114.487 20.6507 114.484 20.7855C114.466 21.0221 114.416 21.1622 114.335 21.2071C114.183 21.2648 114.021 21.288 113.859 21.2751C113.506 21.2433 113.152 21.3291 112.852 21.5192C112.667 21.6589 112.541 21.8629 112.499 22.0911C112.455 22.4338 112.437 22.7792 112.444 23.1247V25.7359H113.478C114.257 25.7359 114.919 25.2098 115.464 24.1576C115.579 23.9457 115.684 23.7278 115.776 23.5048C115.858 23.3058 115.935 23.1337 116.008 22.9887C116.212 22.4758 116.448 21.9762 116.715 21.4927C116.941 21.1028 117.241 20.7611 117.599 20.4869C117.996 20.1875 118.475 20.0166 118.972 19.9973C119.27 19.984 119.566 20.0314 119.845 20.1366C120.123 20.2418 120.377 20.4027 120.591 20.6094C120.783 20.7888 120.936 21.0056 121.042 21.2465C121.147 21.4874 121.202 21.7473 121.203 22.0102C121.211 22.3116 121.12 22.6074 120.944 22.8527C120.785 23.0772 120.581 23.2671 120.346 23.4109C120.172 23.5293 119.971 23.5996 119.761 23.6149C119.71 23.6158 119.659 23.6063 119.612 23.5871C119.566 23.5694 119.544 23.5245 119.544 23.4511C119.554 23.1087 119.459 22.7713 119.272 22.4848C119.193 22.3617 119.084 22.2609 118.956 22.1919C118.827 22.123 118.683 22.0883 118.537 22.0911C118.328 22.0805 118.119 22.1193 117.928 22.2043C117.737 22.2894 117.568 22.4183 117.436 22.5807C117.183 22.8889 116.977 23.2326 116.824 23.6007C116.678 23.9543 116.569 24.2036 116.497 24.3487C116.19 25.0101 115.687 25.561 115.056 25.9263V25.9807C115.728 25.9942 116.381 26.2072 116.932 26.5927C117.418 26.9402 117.825 27.3848 118.129 27.8983C118.468 28.4996 118.768 29.1222 119.027 29.7621C119.233 30.288 119.488 30.7934 119.788 31.2717C119.872 31.4145 119.991 31.5333 120.134 31.6167C120.277 31.7001 120.439 31.7452 120.604 31.7477C120.767 31.7539 120.926 31.701 121.053 31.5988C121.205 31.4582 121.338 31.2982 121.448 31.1228C121.592 30.9052 121.71 30.7964 121.801 30.7964H121.828C121.892 30.7928 121.956 30.8059 122.013 30.8344C122.07 30.8629 122.119 30.9058 122.155 30.959C122.191 31.0149 122.214 31.0779 122.224 31.1437C122.233 31.2096 122.228 31.2767 122.209 31.3404C122.166 31.5795 122.067 31.805 121.921 31.9988C121.774 32.1925 121.584 32.349 121.366 32.4556C120.872 32.7192 120.317 32.8502 119.757 32.8358C119.197 32.8214 118.65 32.662 118.17 32.3733C117.727 32.085 117.352 31.7049 117.068 31.2588C116.735 30.7015 116.444 30.1195 116.198 29.518C115.96 28.9688 115.692 28.4331 115.396 27.9132C115.165 27.5291 114.855 27.1996 114.484 26.9476C114.065 26.6734 113.571 26.5357 113.07 26.5532H112.444V29.8444C112.437 30.1898 112.455 30.5353 112.499 30.878C112.541 31.106 112.667 31.3098 112.852 31.4492C113.152 31.6396 113.506 31.7254 113.859 31.6933H114.022C114.137 31.6851 114.251 31.7139 114.348 31.7756C114.444 31.8896 114.492 32.0353 114.484 32.1836C114.487 32.3186 114.449 32.4513 114.376 32.5644C114.34 32.6178 114.291 32.6609 114.234 32.6895C114.177 32.7182 114.113 32.7313 114.049 32.7276C112.997 32.6732 112.045 32.646 111.193 32.646C110.468 32.646 109.588 32.6732 108.555 32.7276C108.495 32.7292 108.436 32.7149 108.383 32.6862C108.331 32.6576 108.287 32.6156 108.256 32.5644C108.182 32.4514 108.144 32.3186 108.147 32.1836C108.164 31.9477 108.215 31.8069 108.296 31.762C108.439 31.7061 108.592 31.6828 108.745 31.694C109.047 31.7397 109.355 31.6773 109.616 31.5179C109.691 31.4608 109.753 31.3893 109.8 31.3075C109.847 31.2257 109.876 31.1354 109.888 31.0419C109.905 30.8606 109.923 30.4619 109.942 29.8458V26.5546H109.316C108.814 26.5373 108.318 26.6802 107.902 26.9626C107.531 27.2247 107.22 27.5632 106.991 27.9554C106.696 28.4812 106.429 29.0216 106.188 29.5745C105.941 30.1792 105.65 30.7653 105.318 31.3282C105.045 31.7743 104.673 32.1513 104.23 32.4298C103.737 32.6944 103.188 32.8352 102.629 32.8401C102.069 32.845 101.518 32.7137 101.02 32.4577V32.4556Z" fill="white"/>
<path d="M133.66 32.4276C133.217 32.1493 132.845 31.7723 132.572 31.326C132.241 30.763 131.95 30.1769 131.702 29.5723C131.394 28.8833 131.126 28.3436 130.899 27.9532C130.67 27.5611 130.36 27.2226 129.989 26.9604C129.572 26.6781 129.077 26.5353 128.574 26.5524H127.73V29.8436C127.722 30.189 127.741 30.5345 127.784 30.8772C127.827 31.105 127.953 31.3086 128.138 31.4484C128.437 31.6386 128.791 31.7244 129.144 31.6925H129.308C129.423 31.6843 129.537 31.7131 129.635 31.7748C129.707 31.8292 129.752 31.9652 129.771 32.1828C129.774 32.3177 129.736 32.4504 129.662 32.5636C129.627 32.617 129.578 32.6601 129.521 32.6887C129.464 32.7174 129.4 32.7305 129.336 32.7268C128.284 32.6724 127.332 32.6452 126.48 32.6452C125.755 32.6452 124.875 32.6724 123.842 32.7268C123.782 32.7284 123.723 32.7141 123.671 32.6854C123.618 32.6568 123.574 32.6148 123.543 32.5636C123.469 32.4506 123.431 32.3178 123.434 32.1828C123.452 31.9469 123.502 31.8061 123.584 31.7612C123.726 31.7052 123.879 31.682 124.032 31.6932C124.334 31.7388 124.643 31.6765 124.903 31.5171C124.978 31.4599 125.04 31.3883 125.087 31.3066C125.134 31.2249 125.164 31.1346 125.175 31.0411C125.193 30.8598 125.211 30.4611 125.229 29.845V23.1266C125.229 23.0178 125.225 22.7553 125.216 22.3378C125.23 22.183 125.212 22.0269 125.163 21.8795C125.114 21.732 125.035 21.5963 124.93 21.481C124.666 21.3054 124.346 21.2328 124.032 21.277H123.869C123.759 21.2871 123.648 21.2583 123.557 21.1954C123.471 21.0773 123.427 20.9334 123.434 20.7874C123.431 20.6526 123.469 20.5201 123.543 20.4073C123.574 20.3561 123.618 20.3141 123.671 20.2855C123.723 20.2568 123.782 20.2425 123.842 20.2441C124.876 20.2985 125.755 20.3257 126.48 20.3257C127.314 20.3257 128.266 20.2985 129.336 20.2441C129.4 20.2404 129.464 20.2535 129.521 20.2822C129.578 20.3108 129.627 20.3539 129.662 20.4073C129.736 20.5203 129.773 20.6527 129.771 20.7874C129.752 21.024 129.703 21.1641 129.622 21.209C129.47 21.2666 129.307 21.2898 129.146 21.277C128.792 21.2454 128.439 21.3312 128.139 21.5211C127.954 21.6612 127.828 21.8651 127.786 22.093C127.742 22.4357 127.724 22.7812 127.731 23.1266V25.7378H128.983C129.762 25.7378 130.424 25.2117 130.969 24.1595C131.084 23.9474 131.189 23.7296 131.281 23.5067C131.363 23.3075 131.439 23.1354 131.512 22.9906C131.717 22.478 131.953 21.9784 132.219 21.4946C132.445 21.1049 132.746 20.7633 133.103 20.4889C133.5 20.1894 133.98 20.0185 134.477 19.9993C134.774 19.9859 135.071 20.0333 135.349 20.1385C135.627 20.2437 135.881 20.4046 136.095 20.6113C136.287 20.7907 136.441 21.0075 136.546 21.2484C136.651 21.4893 136.706 21.7492 136.707 22.0121C136.715 22.3135 136.624 22.6093 136.449 22.8546C136.289 23.0791 136.085 23.269 135.85 23.4129C135.677 23.5313 135.475 23.6017 135.265 23.6169C135.214 23.6177 135.163 23.6083 135.116 23.589C135.07 23.5713 135.048 23.5264 135.048 23.453C135.059 23.1106 134.964 22.7732 134.776 22.4867C134.698 22.3636 134.589 22.2628 134.46 22.1939C134.332 22.1249 134.188 22.0902 134.042 22.093C133.832 22.0825 133.624 22.1213 133.432 22.2064C133.241 22.2914 133.072 22.4203 132.939 22.5826C132.687 22.8909 132.48 23.2345 132.327 23.6026C132.182 23.9562 132.073 24.2055 132.001 24.3506C131.694 25.0123 131.19 25.5631 130.559 25.9282V25.9826C131.227 25.9945 131.877 26.2078 132.423 26.5946C132.901 26.945 133.304 27.3892 133.605 27.9002C133.951 28.5116 134.259 29.1431 134.53 29.7913C134.725 30.306 134.966 30.8022 135.251 31.2737C135.327 31.414 135.439 31.5319 135.575 31.6154C135.711 31.6989 135.867 31.7453 136.027 31.7497C136.221 31.7624 136.415 31.7047 136.571 31.5871C136.724 31.4478 136.856 31.2876 136.965 31.1112C137.101 30.9024 137.214 30.7983 137.305 30.7983H137.332C137.396 30.7946 137.46 30.8076 137.517 30.8361C137.574 30.8646 137.623 30.9077 137.659 30.9609C137.695 31.0167 137.718 31.0797 137.728 31.1456C137.738 31.2114 137.733 31.2786 137.714 31.3424C137.671 31.5814 137.572 31.8069 137.425 32.0007C137.279 32.1944 137.089 32.351 136.87 32.4575C136.42 32.7056 135.915 32.8366 135.402 32.8383C134.793 32.88 134.186 32.7368 133.66 32.4276Z" fill="white"/>
<path d="M138.487 37.8277C138.208 37.6215 137.98 37.3533 137.822 37.0441C137.664 36.735 137.58 36.3934 137.576 36.0461C137.576 35.2301 137.803 34.7088 138.256 34.4822C138.581 34.2939 138.943 34.1779 139.317 34.1422C139.584 34.1313 139.848 34.1974 140.079 34.3326C140.278 34.459 140.378 34.5773 140.378 34.6861C140.378 34.7222 140.305 34.8126 140.161 34.9581C139.992 35.1739 139.914 35.4467 139.943 35.7191C139.938 36.067 140.058 36.405 140.283 36.6711C140.401 36.8086 140.55 36.9169 140.718 36.9876C140.885 37.0584 141.067 37.0897 141.248 37.0791C142.391 37.0791 143.506 35.9097 144.594 33.5709C144.654 33.3857 144.691 33.1935 144.703 32.9991C144.692 32.7668 144.646 32.5374 144.567 32.3191C144.204 31.5031 143.596 29.9892 142.743 27.7773C142 25.8004 141.393 24.2953 140.921 23.2622C140.72 22.7287 140.426 22.2356 140.051 21.8063C139.715 21.516 139.296 21.3401 138.854 21.3037C138.756 21.2772 138.656 21.2589 138.555 21.2493C138.409 21.2317 138.319 21.1854 138.283 21.1133C138.238 20.9915 138.22 20.8619 138.228 20.7326C138.228 20.515 138.287 20.3789 138.406 20.3245C138.543 20.2658 138.691 20.2335 138.84 20.2293C139.013 20.2198 139.127 20.2157 139.18 20.2157C140.079 20.1204 140.985 20.2856 141.792 20.6917C142.507 21.1601 143.059 21.84 143.369 22.6365C143.768 23.5609 144.122 24.4404 144.43 25.2749C145.155 27.2333 145.745 28.6659 146.198 29.5726H146.28L148.946 22.4461C149.017 22.2348 149.063 22.0156 149.082 21.7933C149.087 21.7051 149.063 21.6175 149.014 21.5439C148.965 21.4703 148.893 21.4147 148.81 21.3853C148.519 21.298 148.216 21.2612 147.913 21.2765H147.749C147.638 21.2867 147.528 21.2578 147.436 21.1949C147.351 21.0766 147.308 20.9328 147.314 20.7869C147.314 20.6585 147.347 20.5323 147.409 20.4197C147.434 20.3659 147.475 20.3205 147.526 20.2893C147.576 20.258 147.635 20.2421 147.695 20.2436C148.728 20.298 149.608 20.3252 150.334 20.3252C150.623 20.3252 151.185 20.3071 152.02 20.2708L152.591 20.2436C152.652 20.2429 152.712 20.259 152.765 20.29C152.817 20.3211 152.861 20.3659 152.89 20.4197C152.96 20.5295 152.998 20.6568 152.999 20.7869C152.981 21.0054 152.936 21.1415 152.863 21.1949C152.765 21.256 152.651 21.2845 152.536 21.2765C152 21.2461 151.465 21.3588 150.986 21.603C150.549 21.9188 150.225 22.3667 150.061 22.8807C149.643 23.9147 148.973 25.5741 148.048 27.8589C147.124 30.1437 146.435 31.8301 145.981 32.9181C145.403 34.3478 144.634 35.6928 143.696 36.9165C143.344 37.4217 142.877 37.8357 142.333 38.1242C141.789 38.4127 141.184 38.5675 140.568 38.5757C139.808 38.5823 139.07 38.3171 138.487 37.8277Z" fill="white"/>
<path d="M47.1241 27.6343C45.0888 29.7271 42.66 31.3972 39.9773 32.5486C42.2866 30.4794 44.1334 27.9462 45.3969 25.1145C46.6604 22.2829 47.3122 19.2165 47.3098 16.1157C47.3098 15.8437 47.2989 15.5717 47.2894 15.2997C46.6171 17.4467 45.6193 19.4777 44.3307 21.3218C45.4369 18.2821 45.8632 15.0368 45.5796 11.8145C45.296 8.59215 44.3094 5.47121 42.6892 2.67144L42.6422 2.58984C41.759 7.36754 39.3241 11.7203 35.7151 14.9733C36.1147 12.9523 36.7959 10.9972 37.7388 9.16545C35.1757 10.7112 32.9528 12.7608 31.2047 15.1902C29.4565 17.6197 28.2193 20.3786 27.568 23.2999C27.0993 21.6601 26.8223 19.9715 26.7425 18.2679C24.6331 21.7271 23.52 25.7016 23.5261 29.7531C23.5261 29.9986 23.5349 30.2421 23.5431 30.4855C23.0823 29.1636 22.4969 27.8886 21.7948 26.6775C19.2639 29.6693 17.5784 33.283 16.9124 37.1447L16.9321 37.1413L16.926 37.1665L16.9124 37.1447C16.9002 37.2127 16.8906 37.2862 16.8791 37.3569C16.8675 37.4276 16.8628 37.5099 16.8539 37.586C16.8451 37.6622 16.8369 37.7295 16.8301 37.803C16.8254 37.8594 16.8199 37.9152 16.8158 37.9723C16.805 38.1389 16.7968 38.3123 16.7968 38.4932C16.7968 38.7101 16.8077 38.9243 16.824 39.1371C16.824 39.1779 16.8294 39.2194 16.8328 39.2602C16.8514 39.4647 16.877 39.6673 16.9097 39.8681C16.9151 39.9049 16.9226 39.9409 16.9287 39.9776C16.9641 40.1755 17.0042 40.3713 17.0525 40.5644C17.0525 40.5753 17.0572 40.5869 17.06 40.5978C17.1116 40.8018 17.1715 40.9956 17.2368 41.1907C17.2483 41.2261 17.2606 41.2587 17.2728 41.2975C17.3007 41.3764 17.3333 41.4525 17.3632 41.5301C16.3276 41.6973 15.2614 41.173 14.4222 39.9524C14.9316 42.5079 13.4702 43.9706 10.9141 43.4606C12.2741 44.3976 12.7705 45.6162 12.4047 46.7599C8.85597 48.335 5.10087 49.3963 1.25268 49.9117C1.11833 49.9281 0.992329 49.9856 0.89193 50.0763C0.791532 50.1671 0.721656 50.2867 0.691871 50.4187C0.662086 50.5507 0.673847 50.6887 0.725552 50.8138C0.777256 50.9389 0.866372 51.0449 0.980686 51.1174L1.02965 51.1473C1.12374 51.2038 1.23302 51.2296 1.34244 51.2214C1.63484 51.1833 1.92657 51.1439 2.21625 51.1004C2.37605 51.0766 2.53653 51.0555 2.69565 51.0324C3.21698 50.9481 3.73582 50.8551 4.25217 50.7536C4.45617 50.7135 4.6656 50.6679 4.87232 50.6244C5.19373 50.5573 5.51447 50.4868 5.83453 50.4129C6.08567 50.3553 6.33614 50.2953 6.58592 50.2327C6.85452 50.1647 7.12041 50.0967 7.38697 50.0239C8.42329 49.7465 9.44555 49.4355 10.4538 49.091C10.6265 49.0318 10.7992 48.9733 10.9706 48.9128C11.2915 48.7995 11.6104 48.6825 11.9273 48.5619C18.285 46.1459 24.0531 42.3991 28.8451 37.5726C33.6371 32.7462 37.3424 26.9514 39.7128 20.5765C37.5839 26.8863 34.1449 32.6746 29.6212 37.5615C25.0976 42.4484 19.5917 46.3235 13.4648 48.9325C14.3332 49.5037 14.7085 50.6169 14.412 52.1054C15.8883 49.9587 18.067 49.9587 19.5433 52.1054C19.0333 49.55 20.4953 48.088 23.0514 48.598C22.5998 48.3381 22.2178 47.9728 21.938 47.5332C21.6582 47.0937 21.4889 46.593 21.4446 46.0738C21.7022 46.2066 21.9664 46.3262 22.2361 46.4322C22.4483 46.5138 22.6645 46.587 22.8849 46.6518C23.0725 46.7069 23.2636 46.7558 23.4567 46.7987H23.4669C23.6594 46.8408 23.8538 46.8769 24.051 46.9055L24.0776 46.9089C24.2482 46.9333 24.421 46.9517 24.5944 46.9653L24.7242 46.9755C24.8738 46.985 25.0243 46.9909 25.1758 46.9932H25.1866H25.2485H25.2846C25.3301 46.9932 25.3723 46.9932 25.4172 46.9898C28.7619 46.96 32.056 46.1694 35.05 44.678C38.044 43.1866 40.6594 41.0335 42.698 38.3816C39.8157 40.2552 36.534 41.4262 33.1168 41.8007C32.7482 41.8415 32.3783 41.8762 32.0043 41.8979C32.4171 41.7857 32.8237 41.6599 33.2283 41.5246C36.4569 40.4341 39.3903 38.6134 41.8004 36.2042C44.2105 33.7951 46.0323 30.8624 47.1241 27.6343Z" fill="#FF0A78"/>
</g>
<defs>
<clipPath id="clip0_4001_2318">
<rect width="153" height="54.4" fill="white"/>
</clipPath>
</defs>
</svg>
