<svg width="30" height="31" viewBox="0 0 30 31" fill="none" xmlns="http://www.w3.org/2000/svg">
<path d="M10.0135 23.4005C10.0135 23.9309 9.80247 24.4396 9.42676 24.8146C9.05105 25.1897 8.54149 25.4004 8.01016 25.4004C7.47883 25.4004 6.96926 25.1897 6.59356 24.8146C6.21785 24.4396 6.00678 23.9309 6.00678 23.4005M10.0135 23.4005C10.0135 22.87 9.80247 22.3613 9.42676 21.9863C9.05105 21.6112 8.54149 21.4005 8.01016 21.4005C7.47883 21.4005 6.96926 21.6112 6.59356 21.9863C6.21785 22.3613 6.00678 22.87 6.00678 23.4005M10.0135 23.4005H18.027M6.00678 23.4005H3.50256C3.10406 23.4005 2.72189 23.2424 2.44011 22.9611C2.15833 22.6798 2.00002 22.2983 2.00002 21.9005V17.4006M18.027 23.4005H21.0321M18.027 23.4005V17.4006M2.00002 17.4006V7.22097C1.9979 6.85588 2.13153 6.50298 2.37504 6.23057C2.61856 5.95817 2.95464 5.78563 3.31825 5.74635C7.76981 5.28507 12.2573 5.28507 16.7088 5.74635C17.4634 5.82368 18.027 6.46366 18.027 7.22097V8.49826M2.00002 17.4006H18.027M25.0389 23.4005C25.0389 23.9309 24.8278 24.4396 24.4521 24.8146C24.0764 25.1897 23.5668 25.4004 23.0355 25.4004C22.5042 25.4004 21.9946 25.1897 21.6189 24.8146C21.2432 24.4396 21.0321 23.9309 21.0321 23.4005M25.0389 23.4005C25.0389 22.87 24.8278 22.3613 24.4521 21.9863C24.0764 21.6112 23.5668 21.4005 23.0355 21.4005C22.5042 21.4005 21.9946 21.6112 21.6189 21.9863C21.2432 22.3613 21.0321 22.87 21.0321 23.4005M25.0389 23.4005H26.5414C27.3708 23.4005 28.0493 22.7285 27.9972 21.9018C27.7288 17.4988 26.2434 13.2562 23.706 9.64489C23.4643 9.30661 23.1487 9.0276 22.7831 8.82896C22.4175 8.63032 22.0115 8.51723 21.5957 8.49826H18.027M18.027 8.49826V17.4006" stroke="#FF0A78" stroke-linecap="round" stroke-linejoin="round"/>
</svg>
